<svg xmlns="http://www.w3.org/2000/svg" width="96" height="96" fill="none" viewBox="0 0 96 96">
    <path stroke="#000577" stroke-linecap="round" stroke-linejoin="round" stroke-miterlimit="10" d="M63.903 95.152c-8.999-1.659-11.98-3.312-15.04-5.272-1.904-1.215-3.98-2.848-5.699-4.479m20.739 9.75c8.364-1.431 13.216-6.866 19.548-3.988 1.856.846 3.245 2.11 4.262 3.33.701.84 1.838 1.266 2.79.726 1.42-.804 3.328-2.302 4.252-4.856.59-1.633.574-3.136.441-4.177-.074-.577-.412-1.078-.888-1.414-4.548-3.215-13.034-8.236-23.871-9.272-11.32-1.082-21.978 2.163-23.663 2.805-1.684.642-1.133 2.761-.244 3.807.811.954 2.137 1.016 6.542.73 1.926-.126 4.277-.271 7.144-.561m3.687 12.87c-.975.168-1.997.28-3.075.319-11.923.442-23.868-6.765-26.455-10.59m8.791.521c-2.45-2.325-4.174-4.645-3.632-5.743.351-.713 1.682-.956 2.523-.91 1.535.084 2.53 1.18 2.785 1.478 1.792 2.195 3.774 4.09 6.026 5.473m-7.702-.298s-6.053-4.234-8.58-2.815M50.866 85.7c2.285 1.404 4.849 2.281 7.775 2.413 4.132.098 7.132-2.586 9.534-5.684.083-.107.173-.207.274-.297.7-.624 2.094-1.674 4.131-2.065 3.515-.683 6.226 1.115 6.778 1.498M50.866 85.7c2.307-.268 4.935-.932 6.879-1.56.87-.28 1.738-1.025 2.47-1.858m-9.35 3.418l-.07.008m9.42-3.426c.92-1.045 1.625-2.23 1.86-2.816M34.372 84.88c-.41-.605-.584-1.126-.488-1.518.075-.295.294-.48.436-.596.083-.068.17-.128.263-.18m-.21 2.294c-.173-.101-2.224-1.268-3.79-.276-.104.065-1.143.745-1.084 1.632.044.703.76 1.285 1.865 1.826 3.588 1.747 15.358 5.011 17.259 5.535m-14.25-8.717l.006.004m.204-2.298c-.876-.615-1.993-.597-2.704-.003-.744.618-.722 1.593-.72 1.723m3.424-1.72l.005.004"/>
    <path fill="#A8ABFF" d="M49.675 45.438c-10-6-18.5 5.5-13.5 8.5-12.341 5.584-4 18.5 6 14 14.643.942 19.928-1.315 25.5-9 15-2 16.325-10.211 4.5-13.5-3-11-16.5-11.5-22.5 0zM72 76c0 3.866-3.134 7-7 7s-7-3.134-7-7 3.134-7 7-7 7 3.134 7 7zM51 35c0 2.21-1.79 4-4 4s-4-1.79-4-4 1.79-4 4-4 4 1.79 4 4z"/>
    <path stroke="#000577" stroke-dasharray="2 2" stroke-linecap="round" stroke-linejoin="round" d="M50.471 38.088S57.5 46 50.177 48.273c-7.323 2.272-4.173 7.353-4.173 7.353M50 69.69c.571 2.57 2.546 3.42 4.963 3.64"/>
    <path stroke="#000577" stroke-linecap="round" stroke-linejoin="round" d="M10.65 23.05c2.131-.26 3.669-.008 4.787.416m0 0c.519.197.947.431 1.303.668 1.125.758 1.67 1.652 3.27 2.304 1.494.605 2.76.528 3.466.525 3.256-.026 8.478-.562 11.702 2.434 1.73 1.608 4.237 3.448 5.592 4.37 1.355.92 2.142-.35 2.221-.562.353-.841.246-3.552-2.4-6.716-3.623-4.32-7.064-3.602-8.181-6.858-.58-1.684-.37-3.96.92-4.978 1.17-.919 3.151-.778 4.528-.063 5.48 2.85 2.885 15.482 6.82 16.364.14.031.577.11 1.032-.074 2.643-1.066 1.857-9.33.271-14.816-.553-1.92-.93-3.156-1.93-4.594M15.437 23.466c-.739 3.795-.781 6.066-1.343 9.485-.15.91-.93 1.595-1.85 1.525-4.825-.365-9.407-3.379-11.537-7.732C.594 26.53.495 26.3.5 26.063c.005-.323.199-.601.386-.866 2.597-3.65 5.005-7.43 7.208-11.325 1.181-2.09 3.589-3.268 5.813-4.173 5.582-2.255 11.518-3.616 17.52-4.019m12.624 5.79c-2.314-3.316-5.867-4.65-7.081-5.106l-.014-.005c-.789-.298-1.41-.435-1.607-.477-1.06-.226-2.258-.303-3.921-.202m12.623 5.79l14.942-.492s4.272-.03 5.315-1.5c1.043-1.47-1.799-2.042-2.678-2.101C42.615 6.067 44.504 6.05 41.739 6.07c-1.646.009-3.27-.152-6.42-.21m-3.891-.18C34.896 4.502 52.47-.383 53.79 1.05c1.319 1.433-1.176 2.663-1.83 2.999M34.268 5.71s9.54-1.506 17.695-1.66m0 0c3.55-.067 6.837.122 8.96.804l.004.001c.454.149 1.402.458 1.485 1.067.088.62-.722 1.218-.98 1.381M24 37c-.12 3.845-.419 5.188-2.32 7.285-.368.405-.368 1.026 0 1.43 1.901 2.097 2.2 3.44 2.32 7.285.118-3.845.417-5.188 2.32-7.285.367-.405.367-1.026 0-1.43-1.903-2.097-2.202-3.44-2.32-7.285zm53-3c-.118 3.561-.412 4.833-2.253 6.758-.395.414-.395 1.07 0 1.484C76.59 44.167 76.883 45.439 77 49c.117-3.561.411-4.833 2.252-6.758.396-.414.396-1.07 0-1.484C77.412 38.833 77.117 37.561 77 34zm-6-12c-.073 2.212-.249 3.099-1.264 4.248-.38.428-.38 1.076 0 1.504C70.753 28.901 70.927 29.788 71 32c.073-2.212.248-3.099 1.264-4.248.379-.428.379-1.076 0-1.504C71.248 25.099 71.073 24.212 71 22zm-1 54c0 2.761-2.24 5-5 5-2.762 0-5-2.239-5-5s2.238-5 5-5c2.76 0 5 2.239 5 5zM50 35c0 1.657-1.344 3-3 3-1.658 0-3-1.343-3-3s1.342-3 3-3c1.656 0 3 1.343 3 3zM31 59c-.073 2.212-.248 3.099-1.265 4.248-.379.428-.379 1.076 0 1.504C30.753 65.901 30.928 66.788 31 69c.073-2.212.248-3.099 1.264-4.248.379-.428.379-1.076 0-1.504C31.248 62.099 31.073 61.212 31 59z"/>
</svg>
