<svg xmlns="http://www.w3.org/2000/svg" width="96" height="96" fill="none" viewBox="0 0 96 96">
    <path fill="#000577" d="M53.974 87.448l-.026.5.026-.5zM37.124 76.91l.356-.351-.356.351zm-5.702-7.012l.415-.278-.415.278zm-2.844-7.983l.39.315-.39-.315zm3.32-.414l-.137.481.137-.481zm2.982 2.561l.447-.223-.005-.01-.442.233zm14.624 13.38l-.132.482.01.003.122-.485zm13.158-4.298l.318.385-.318-.385zm.414-.287l-.242-.437.242.437zm5.592-1.379l-.016.5h.001l.015-.5zm7.465 4.02c.187.204.503.218.707.032.203-.187.217-.503.03-.707l-.737.676zM53.02 70.78l.294.405-.294-.405zm-8.844-1.277l-.079.494.079-.494zm-7.758-2.682l-.443.232.443-.232zm1.342-4.565l-.07-.495.07.495zm29.554 3.08l.156-.475-.156.475zm26.494 17.829l.371-.335-.371.335zm.692 1.964l.498.047-.498-.047zm-1.683 4.96l.422.27-.422-.27zm-6.503 4.74l-.145-.478.145.478zm-3.196-1.65l.445-.227-.445.228zm-4.27-5.218l.302-.398-.302.398zm-28.702-.969l.093-.49-.001-.001-.092.491zm-29.452-22.12l-.446-.227-.001.003.447.223zm.693-.606l.224.447-.224-.447zm35.078 3.883c.157-.228.099-.54-.129-.695-.227-.157-.539-.1-.695.129l.824.566zm-6.961 4.215l-.045-.498.045.498zm-8.828-.497c-.275-.03-.522.168-.552.442-.03.275.168.522.443.552l.109-.994zm-5.098 9.94c.244.13.547.039.677-.205.13-.243.038-.546-.205-.676l-.472.882zm-19.24-11.909l-.313.39.313-.39zm-1.767-2.733l.493.08v-.003l-.493-.077zm1.767-1.688l.165.472.003-.001-.168-.471zm4.197 1.745c.2.19.517.181.706-.02.19-.2.181-.516-.019-.706l-.687.726zm-3.905-2.047c-.054.27.122.534.393.588.27.054.534-.122.588-.392l-.98-.196zm1.839-1.801l.227.446v-.001l-.227-.445zm2.922 1.087c.185.205.501.221.706.036.205-.185.221-.501.037-.706l-.743.67zm24.864-23.673c0-.276-.223-.5-.5-.5-.276 0-.5.224-.5.5h1zm12.639 0c0-.276-.224-.5-.5-.5s-.5.224-.5.5h1zm-27.876 1.608c.253-.11.37-.404.26-.658-.11-.253-.404-.37-.658-.26l.398.918zm-17.632 6.55c-.253.11-.37.405-.26.658.11.253.405.37.658.26l-.398-.918zm13.29-14.566c.269.067.54-.096.607-.364.067-.268-.096-.54-.364-.607l-.242.97zm-13.544-4.417c-.268-.067-.54.096-.606.364-.067.267.096.539.364.606l.242-.97zM72.38 41.477c-.254-.11-.548.007-.658.26-.11.254.007.548.26.658l.398-.918zm16.836 8.386c.254.11.548-.007.658-.26.11-.253-.007-.548-.26-.658l-.398.918zM76.081 33.408c-.268.067-.43.339-.364.607.067.268.339.43.606.364l-.242-.97zm14.03-2.476c.268-.067.43-.339.364-.606-.067-.268-.339-.431-.607-.364l.243.97zM54.17 86.988c-10.438-4.463-13.555-7.257-16.691-10.43l-.711.703c3.235 3.274 6.463 6.138 17.008 10.647l.393-.92zm-16.692-10.43c-1.957-1.978-4.015-4.509-5.642-6.939l-.83.556c1.66 2.48 3.757 5.061 5.762 7.086l.71-.704zm-5.642-6.939c-1.161-1.735-2.09-3.399-2.609-4.76-.26-.68-.408-1.262-.441-1.725-.034-.47.053-.748.18-.905l-.777-.63c-.354.437-.444 1.015-.4 1.607.043.598.226 1.282.504 2.01.557 1.46 1.53 3.194 2.712 4.96l.831-.557zm-2.87-7.39c.176-.218.571-.38 1.16-.42.563-.038 1.179.043 1.634.172l.273-.962c-.556-.158-1.287-.255-1.976-.207-.662.045-1.421.235-1.868.788l.777.628zm2.794-.248c1.632.462 2.457 1.898 2.677 2.314l.884-.467c-.238-.451-1.232-2.226-3.288-2.81l-.273.963zm2.671 2.303c1.595 3.196 3.516 6.095 5.927 8.446l.698-.716c-2.308-2.25-4.169-5.048-5.73-8.176l-.895.446zm5.927 8.446c2.45 2.39 5.402 4.206 9.013 5.193l.264-.964c-3.435-.939-6.24-2.664-8.579-4.945l-.698.716zm9.023 5.196c5.244 1.314 9.799-1.266 13.598-4.398l-.636-.771c-3.744 3.087-7.962 5.39-12.718 4.199l-.243.97zm13.937-4.632c.98-.544 2.872-1.396 5.333-1.317l.032-1c-2.71-.086-4.784.851-5.85 1.442l.485.875zm5.334-1.317c4.251.128 6.934 2.925 7.48 3.52l.738-.675c-.587-.64-3.512-3.704-8.188-3.844l-.03 1zM53.08 70.283c-3.556-.432-6.447-.898-8.826-1.275l-.157.988c2.377.376 5.285.845 8.863 1.28l.12-.993zm-8.826-1.275c-2.728-.431-4.443-.75-5.566-1.125-1.096-.366-1.545-.758-1.827-1.295l-.886.464c.444.845 1.155 1.365 2.397 1.78 1.215.405 3.016.736 5.725 1.164l.157-.988zm-7.393-2.42c-.354-.675-.547-1.626-.412-2.415.067-.388.209-.711.422-.949.208-.23.51-.41.96-.474l-.142-.99c-.663.095-1.184.377-1.56.795-.371.412-.575.925-.665 1.449-.178 1.034.07 2.207.511 3.048l.886-.464zm.97-3.838c2.179-.312 15.95-1.33 29.327 3.06l.312-.95c-13.57-4.453-27.509-3.425-29.78-3.1l.14.99zm29.327 3.06c12.78 4.196 21.655 12.56 26.278 17.689l.743-.67C89.502 77.64 80.487 69.133 67.47 64.86l-.311.95zm26.844 19.27c-.118 1.25-.494 2.999-1.606 4.739l.843.538c1.222-1.911 1.63-3.826 1.759-5.182l-.996-.095zm-1.606 4.739c-1.736 2.714-4.343 3.961-6.227 4.53l.29.958c2.01-.608 4.867-1.96 6.78-4.95l-.843-.538zm-8.833 3.132c-.926-1.808-2.312-3.795-4.413-5.39l-.604.797c1.95 1.48 3.249 3.334 4.127 5.049l.89-.456zm-4.413-5.39c-3.62-2.743-7.369-2.71-11.442-2.109-4.098.606-8.49 1.77-13.708 1.497l-.052.999c5.35.28 9.937-.92 13.906-1.506 3.994-.59 7.4-.578 10.692 1.916l.604-.797zM54 86.95c-1.21-.064-2.463-.205-3.761-.449l-.185.983c1.345.253 2.642.399 3.894.465l.052-1zm-3.762-.449c-7.213-1.349-13.937-4.999-19.123-8.989-2.59-1.994-4.79-4.066-6.467-5.966-1.685-1.908-2.819-3.615-3.312-4.876l-.931.364c.555 1.42 1.777 3.23 3.493 5.174 1.723 1.952 3.97 4.067 6.607 6.097 5.271 4.055 12.138 7.793 19.55 9.179l.183-.983zM21.336 66.669c-.322-.825-.319-1.327-.195-1.575l-.894-.447c-.326.653-.183 1.514.158 2.386l.931-.364zm-.196-1.572c.09-.177.265-.281.471-.385l-.448-.894c-.2.1-.661.327-.915.826l.892.453zm.471-.385c.092-.046.189-.084.289-.114l-.286-.958c-.154.046-.305.105-.451.178l.448.894zm.289-.114c.69-.206 1.587-.035 2.619.442 1.017.47 2.082 1.197 3.059 1.972.973.773 1.843 1.58 2.471 2.194.313.307.565.566.739.746l.198.21.05.054.013.014.003.003v.001l.37-.337.37-.337-.002-.001-.004-.004-.014-.016-.055-.059-.207-.22c-.18-.187-.44-.453-.761-.768-.644-.63-1.54-1.462-2.55-2.263-1.006-.798-2.142-1.58-3.261-2.097-1.105-.51-2.282-.803-3.324-.492l.286.958zm33.741 2.984c-.406.59-1.546 1.8-2.915 2.793l.588.81c1.438-1.045 2.666-2.331 3.151-3.037l-.824-.566zm-2.915 2.793c-1.098.797-2.268 1.4-3.267 1.49l.09.996c1.275-.116 2.624-.85 3.765-1.677l-.588-.81zm-3.267 1.49c-2.516.228-5.86.313-8.698.01l-.106.994c2.923.312 6.336.223 8.894-.008l-.09-.996zm-8.698.01l-.085-.01-.11.995.09.01.105-.995zm-4.711 9.05c-1.083-.58-4.976-2.667-9.083-4.997-4.122-2.34-8.411-4.896-10.316-6.421l-.625.78c1.98 1.585 6.345 4.183 10.447 6.51 4.118 2.337 8.02 4.43 9.105 5.01l.472-.882zM16.652 69.508c-.582-.468-1.015-.899-1.285-1.295-.268-.393-.345-.707-.303-.97l-.987-.159c-.097.605.112 1.177.464 1.692.35.514.87 1.017 1.484 1.51l.627-.778zm-1.587-2.267c.054-.345.322-.651.684-.902.35-.243.702-.373.754-.391l-.33-.944c-.094.032-.54.198-.994.513-.442.306-.985.819-1.102 1.57l.988.154zm1.441-1.294c.903-.323 1.84-.084 2.622.308.777.39 1.326.89 1.4.961l.684-.73c-.106-.1-.736-.674-1.636-1.125-.894-.447-2.133-.81-3.406-.356l.336.942zm4.023 1.269l.006.005.687-.726-.01-.009-.683.73zM17.61 65.37c.031-.157.24-1.12 1.085-1.552l-.455-.89c-1.304.665-1.578 2.084-1.61 2.246l.98.195zm1.086-1.552c.799-.41 1.923-.209 2.69.637l.74-.672c-1.026-1.133-2.63-1.5-3.887-.855l.457.89zm2.69.637l.004.005.743-.67-.007-.007-.74.672zm72.05 19.044c.406.45.619 1.018.565 1.581l.996.095c.084-.882-.253-1.719-.819-2.346l-.743.67zm-7.268 10.85c-.993.3-2.05-.312-2.606-1.398l-.89.456c.689 1.344 2.166 2.39 3.786 1.9l-.29-.957zM62.98 73.53c.113-.093.225-.172.34-.235l-.485-.875c-.18.1-.342.216-.49.338l.636.771zM45.256 40.786v5.17h1v-5.17h-1zm0 5.17v3.447h1v-3.447h-1zm5.096 8.543h3.447v-1h-3.447v1zm8.543-5.096v-3.447h-1v3.447h1zm0-3.447v-5.17h-1v5.17h1zm-13.139 3.947h12.639v-1H45.755v1zm0-3.447h12.639v-1H45.755v1zm8.043 8.043c2.814 0 5.096-2.282 5.096-5.096h-1c0 2.262-1.834 4.096-4.096 4.096v1zm-8.543-5.096c0 2.814 2.282 5.096 5.096 5.096v-1c-2.262 0-4.096-1.834-4.096-4.096h-1zM30.62 41.477l-17.234 7.468.398.918 17.234-7.468-.398-.918zm-3.7-8.069l-13.788-3.446-.242.97 13.787 3.447.242-.97zm45.062 8.987l17.234 7.468.398-.918-17.234-7.468-.398.918zm4.341-8.016l13.788-3.447-.243-.97-13.787 3.446.242.97z"/>
    <path fill="#A8ABFF" d="M52.074 0C41.287 0 32.542 8.745 32.542 19.532c0 5.757 2.491 10.932 6.454 14.507.654.59 1.293 1.203 1.843 1.892l3.038 3.8c.603.755 1.01 1.64 1.193 2.576.122.623.625 1.142 1.26 1.142h11.49c.634 0 1.137-.519 1.258-1.142.184-.937.59-1.822 1.194-2.576l3.037-3.8c.551-.69 1.19-1.301 1.844-1.892 3.963-3.575 6.453-8.75 6.453-14.507C71.606 8.745 62.862 0 52.074 0z"/>
    <path stroke="#fff" stroke-linecap="round" stroke-linejoin="round" d="M48.627 36.191l-8.042-16.66m14.936 16.66l8.043-16.66"/>
    <path stroke="#000577" stroke-linecap="round" stroke-linejoin="round" d="M41.734 16.085l3.447-3.447 3.447 3.447 3.446-3.447 3.447 3.447 3.447-3.447 3.447 3.447"/>
</svg>
