<svg xmlns="http://www.w3.org/2000/svg" width="96" height="96" fill="none" viewBox="0 0 96 96">
    <path fill="#A8ABFF" d="M19.92 28c1 4 5 25 5 25s-2.666-19.3-3.133-21.993C21.409 28.84 19.919 21 22.919 21s3.709 6.69 4.222 8.989c1.475 6.636 4.278 21.511 4.278 21.511s-1.5-19.88-1.5-24.69c0-4.81 3.5-3.69 4 0s4.479 22.494 6.077 32.143c1.3-2.874 2.223-5.922 2.729-9.036.328-2.021.506-4.143 1.552-5.903.645-1.088 1.996-2.048 3.1-1.435 1.146.635.987 2.283.86 3.596l-.003.039c-.197 2.017.104 4.047.231 6.068.463 7.389-1.459 14.908-5.412 21.166-1.834 2.905-3.165 5.74-3.474 9.163-.135 1.481.131 2.966.394 4.429C40.343 89.1 41 95.5 41 95.5H21s1.3-9.552.795-13.51c-.328-2.566-1.46-4.943-2.51-7.304-4.277-9.637-8.673-31.229-9.173-33.729s.695-5.414 3.098-2.457c2.402 2.957 5.71 16.5 5.71 16.5s-3-22-3-26.5 3-4.5 4-.5z"/>
    <path fill="#fff" d="M11.979 39.856c-.08-.264-.358-.414-.623-.335-.264.08-.414.358-.335.623l.958-.288zm-.208 2.788c.08.264.358.414.623.335.264-.08.414-.358.335-.623l-.958.288zm1.408 1.212c-.08-.264-.358-.414-.623-.335-.264.08-.414.358-.335.623l.958-.288zm.692 5.788c.08.264.358.414.623.335.264-.08.414-.358.335-.623l-.958.288zm7.38-4.248c-.045-.273-.302-.457-.574-.412-.273.045-.457.302-.412.574l.986-.162zm.96 11.99c.045.273.302.458.574.413.273-.045.457-.302.413-.575l-.987.163zm4.782-13.97c-.047-.273-.306-.456-.578-.409-.272.047-.455.306-.408.578l.986-.17zM28.197 56.3c.047.272.306.455.578.408.272-.047.454-.305.408-.577l-.986.17zm5.8-13.355c-.03-.274-.276-.473-.551-.443-.274.03-.473.276-.443.551l.994-.108zm.31 12.108c.029.274.276.473.55.443.275-.03.473-.276.443-.551l-.994.108zm-1.17-22.096c-.022-.275-.264-.48-.54-.456-.274.023-.479.264-.456.54l.997-.084zm-.308 8.325c.023.275.264.48.54.457.275-.023.48-.265.456-.54l-.996.083zm-.331-14.832c-.027-.275-.272-.476-.547-.449-.275.027-.476.272-.449.547l.996-.098zm-.553 4.598c.027.275.272.476.547.449.274-.027.475-.272.448-.547l-.995.098zm-8.452-7.635c-.048-.272-.307-.454-.579-.407-.272.048-.454.307-.407.579l.986-.172zm-.03 5.672c.048.272.307.454.58.407.271-.048.453-.307.406-.579l-.985.172zm1.247 1.327c-.048-.271-.307-.453-.58-.405-.271.047-.453.307-.405.579l.985-.174zm1.037 11.674c.047.271.307.453.579.405.272-.047.453-.307.406-.579l-.985.174zm-7.755-14.673c-.047-.272-.306-.454-.578-.407-.272.048-.454.307-.407.579l.985-.172zm.063 6.172c.048.272.307.454.579.407.272-.048.454-.307.406-.579l-.985.172zm1.333 1.821c-.051-.271-.313-.45-.584-.398-.271.05-.45.312-.398.584l.982-.186zm.62 8.686c.052.271.313.45.585.398.271-.05.45-.312.398-.584l-.982.186zm-4.73 6.763c-.078-.264-.357-.414-.622-.335-.264.08-.414.358-.335.623l.958-.288zm1.143 7.288c.08.264.358.414.623.335.264-.08.414-.358.335-.623l-.958.288zM46.993 44.58c.045-.272-.14-.53-.413-.573-.272-.045-.53.14-.573.413l.986.16zm-1.72 4.34c-.043.272.141.53.414.573.273.045.53-.14.574-.413l-.987-.16zm.72 2.665c.047-.272-.136-.53-.408-.578-.272-.047-.53.136-.578.408l.986.17zm-3.227 12.83c-.047.272.136.53.408.578.272.047.53-.136.577-.408l-.985-.17zm-24.819-4.639c-.123-.247-.424-.347-.67-.223-.248.123-.348.424-.224.67l.894-.447zm7.106 16.448c.123.247.424.347.67.223.248-.123.348-.424.224-.67l-.894.447zm-1.577-17.378c-.086-.263-.368-.407-.63-.322-.263.086-.407.368-.322.63l.952-.308zm4.238 16.308c.085.263.367.407.63.322.262-.086.406-.368.32-.63l-.95.308zm1.778-17.242c-.049-.272-.309-.453-.58-.404-.272.049-.453.308-.404.58l.984-.176zm2.016 16.89c.049.272.309.453.58.404.272-.048.453-.308.404-.58l-.984.177zM34.5 74c0 .276.224.5.5.5s.5-.224.5-.5h-1zm1-17c0-.276-.224-.5-.5-.5s-.5.224-.5.5h1zm7.404 9.982c.163-.224.113-.536-.11-.699-.223-.162-.536-.113-.698.11l.808.589zm-6.646 7.438c-.163.224-.113.536.11.699.224.162.536.113.699-.11l-.809-.589zM30.5 87.5l-.474.158c.068.204.259.342.474.342.215 0 .406-.138.474-.342L30.5 87.5zm2.5-1l-.4.3.4-.3zM29 80l.354-.353L29 80zm5.5-2l.353-.353L34.5 78zm2.5-1.5l.158-.474L37 76.5zM23.5 83l.224.447.027-.014.026-.017L23.5 83zm2.5-.5l-.224.447L26 82.5zM11.02 40.144l.75 2.5.958-.288-.75-2.5-.958.288zm1.2 4l1.65 5.5.958-.288-1.65-5.5-.958.288zm8.044 1.414l1.946 11.829.987-.163-1.947-11.828-.986.162zm5.742-1.973l2.19 12.716.986-.17-2.19-12.716-.986.17zm6.996-.531l1.303 12 .994-.108-1.303-12-.994.108zm-.862-10.012l.688 8.241.996-.083-.687-8.242-.997.084zm-.639-6.493l.443 4.5.995-.098-.442-4.5-.996.098zm-8.995-2.963l.957 5.5.985-.172-.956-5.5-.986.172zm1.218 7l2.022 11.5.985-.173-2.022-11.5-.985.174zm-6.718-3l1.048 6 .985-.172-1.047-6-.985.172zm1.398 8.007l1.604 8.5.982-.186-1.603-8.5-.983.186zm-4.084 15.55l2.1 7 .958-.287-2.1-7-.958.288zm31.686-6.723l-.733 4.5.987.16.732-4.5-.986-.16zm-1 6.995l-2.241 13 .985.17 2.242-13-.986-.17zm-27.954 8.809l8 16 .894-.448-8-16-.894.448zm5.471-1.07l5.19 16 .95-.308-5.188-16-.952.308zm5.984-1.066l3 16.715.984-.177-3-16.714-.984.176zM35.5 74V57h-1v17h1zm6.596-7.607l-5.838 8.027.809.588 5.837-8.026-.808-.589zM31 95.5v-6h-1v6h1zm-.379-6.485c-.635-.159-1.476-.485-2-.924-.26-.217-.396-.422-.436-.603-.036-.159-.017-.379.215-.688l-.8-.6c-.368.491-.504 1.004-.391 1.506.107.48.422.862.77 1.153.692.578 1.701.952 2.4 1.126l.242-.97zM28.4 86.8c.263-.35.457-.448.56-.471.083-.02.18-.005.315.096.143.108.293.29.431.526.136.23.246.485.32.707l.948-.316c-.092-.278-.229-.598-.406-.898-.173-.296-.403-.601-.693-.819-.299-.224-.69-.372-1.134-.272-.427.096-.804.398-1.141.847l.8.6zm2.221 3.185c.699-.174 1.707-.548 2.4-1.126.348-.291.663-.673.77-1.153.112-.502-.023-1.015-.391-1.506l-.8.6c.232.31.25.53.215.688-.04.18-.176.386-.436.603-.524.439-1.365.765-2 .924l.242.97zM33.4 86.2c-.337-.449-.714-.751-1.14-.847-.446-.1-.836.048-1.135.272-.29.218-.52.523-.694.819-.176.3-.313.62-.405.898l.948.316c.074-.222.184-.477.32-.707.138-.236.288-.418.431-.526.135-.1.231-.115.316-.096.102.023.296.12.559.471l.8-.6zm-8.9-5.7c0-1.108.439-1.835.937-2.234.527-.422 1.069-.454 1.34-.319l.447-.894c-.73-.365-1.688-.147-2.411.432-.752.6-1.313 1.623-1.313 3.015h1zm2.276-2.553c-.129-.064-.111-.19-.116-.133-.006.07-.046.21-.153.42-.207.407-.581.916-.998 1.363-.428.458-.836.781-1.09.886-.142.059-.09-.008.017.06.118.074.064.158.064-.043h-1c0 .3.07.68.404.89.322.201.679.108.896.018.464-.192.994-.65 1.44-1.13.459-.49.897-1.075 1.159-1.59.127-.252.236-.53.258-.793.022-.276-.054-.652-.433-.842l-.448.894zm2.578 1.7c-.098-.098-.155-.254-.105-.523.052-.277.212-.613.463-.949.25-.332.567-.634.897-.85.337-.22.648-.325.89-.325v-1c-.506 0-1.007.207-1.436.488-.436.284-.837.67-1.15 1.087-.311.415-.558.89-.647 1.364-.09.48-.022 1.012.38 1.415l.707-.707zM31.5 77c.127 0 .227.051.318.253.101.225.149.57.12.962-.027.386-.124.757-.252 1.015-.151.301-.245.27-.186.27v1c.559 0 .903-.468 1.08-.823.2-.399.321-.903.356-1.391.035-.484-.012-1.014-.207-1.445-.206-.454-.606-.84-1.23-.84v1zm0 2.5c-.3 0-.567.094-.774.177-.238.096-.374.166-.55.22-.152.048-.266.059-.371.036-.104-.022-.253-.088-.451-.286l-.708.707c.302.3.615.485.95.557.331.071.63.019.878-.059.224-.07.476-.187.625-.248.18-.072.3-.104.4-.104v-1zm3.353-1.853c-.153-.154-.12-.218-.118-.225.017-.053.094-.172.32-.297.446-.248 1.176-.354 1.787-.15l.316-.95c-.89-.296-1.91-.152-2.588.226-.337.186-.666.474-.79.874-.138.447.02.882.366 1.229l.707-.707zm1.989-.672c.064.021.009.02-.026-.062-.03-.075 0-.112-.02-.063-.047.11-.213.312-.506.514-.28.194-.606.34-.891.387-.288.048-.453-.012-.546-.104l-.707.707c.408.407.955.46 1.417.383.465-.077.927-.295 1.296-.55.358-.248.704-.584.858-.95.08-.188.132-.447.023-.709-.113-.27-.346-.424-.582-.502l-.316.949zm-1.895 5.301c-.051-.102-.078-.305-.006-.607.07-.29.217-.611.427-.901.438-.607 1.005-.91 1.51-.783l.243-.97c-1.094-.273-2.027.424-2.564 1.167-.278.385-.486.826-.589 1.255-.1.417-.114.89.085 1.287l.894-.448zm1.932-2.29c.394.097.633.284.777.485.15.208.219.461.219.716 0 .26-.072.492-.17.644-.1.156-.183.169-.205.169v1c.478 0 .833-.3 1.045-.627.215-.333.33-.757.33-1.186 0-.432-.118-.897-.406-1.299-.293-.408-.742-.722-1.348-.873l-.242.97zm.62 2.014c-.278 0-.599.083-.87.16-.298.082-.572.168-.846.226-.275.059-.48.072-.62.045-.113-.022-.17-.063-.216-.155l-.894.448c.204.408.547.617.92.689.342.066.706.017 1.019-.049.314-.067.646-.169.907-.242.288-.08.48-.122.6-.122v-1zM30 83c0-.168.15-.397.61-.55.442-.148.921-.126 1.167-.003l.448-.894c-.555-.277-1.325-.255-1.932-.052-.59.196-1.292.667-1.292 1.499h1zm1.777-.553c.24.12.317.346.243.603-.08.278-.295.45-.52.45v1c.777 0 1.311-.578 1.482-1.175.176-.618.002-1.392-.757-1.772l-.448.894zM31.5 83.5c-.42 0-.838-.004-1.15-.102-.15-.047-.232-.102-.276-.152-.035-.04-.074-.105-.074-.246h-1c0 .359.111.668.326.91.206.232.473.364.725.442.487.152 1.069.148 1.449.148v-1zm-7.723-.084c.215-.143.594-.344.999-.46.42-.122.768-.125 1-.009l.448-.894c-.569-.284-1.22-.204-1.725-.058-.52.15-.991.399-1.276.589l.554.832zm2-.469c.074.037.118.093.133.215.017.141-.016.345-.117.572-.1.224-.247.43-.407.573-.166.147-.302.193-.386.193v1c.416 0 .78-.204 1.052-.447.277-.248.504-.573.655-.912.149-.336.24-.726.196-1.1-.048-.394-.254-.775-.68-.988l-.447.894zM25 84.5c-.135 0-.33-.055-.553-.179-.217-.12-.42-.287-.567-.459-.157-.183-.205-.318-.21-.375 0-.019.003-.013-.004-.002-.005.01 0-.01.058-.038l-.448-.894c-.192.096-.359.234-.47.421-.112.19-.147.394-.133.586.027.365.229.698.447.953.228.265.525.505.84.681.308.173.675.306 1.04.306v-1z"/>
    <rect width="57" height="77" x=".5" y="18.5" stroke="#000577" rx="3.5"/>
    <path stroke="#000577" stroke-linecap="round" stroke-linejoin="round" d="M15.5 21H7c-2.21 0-4 1.79-4 4v9m39.5-13H51c2.21 0 4 1.79 4 4v9M15.5 93H7c-2.21 0-4-1.79-4-4v-8m39.5 12H51c2.21 0 4-1.79 4-4v-8m-6.5-62.5v-9m0 0l9-9m-9 9h7c1.105 0 2-.895 2-2v-7m0 0h36c1.105 0 2 .895 2 2V62c0 1.105-.895 2-2 2h-36M62 17.5h29M62 21h21.5M62 25h26.5M62 28.5h29M62 32h21.5M62 36h26.5M62 40h29m-29 3.5h21.5m-21.5 4h26.5"/>
</svg>
