<svg xmlns="http://www.w3.org/2000/svg" width="97" height="96" fill="none" viewBox="0 0 97 96">
    <path stroke="#A8ABFF" stroke-linecap="round" stroke-linejoin="round" stroke-width="2.186" d="M17.558 20.767h34.977M17.558 29.512h34.977M17.558 38.256h34.977M17.558 25.14h34.977M17.558 33.884h34.977M17.558 42.628h34.977"/>
    <path fill="#A8ABFF" stroke="#A8ABFF" stroke-linecap="round" stroke-linejoin="round" d="M73.57 22.833C75.99 19.92 76.358 18.21 76.5 13c.143 5.21.51 6.92 2.93 9.833.32.386.32.948 0 1.334C77.01 27.08 76.642 28.79 76.5 34c-.143-5.21-.51-6.92-2.93-9.833-.32-.386-.32-.948 0-1.334z"/>
    <path fill="#000577" d="M11 8.698l-.354-.354-.146.147v.207h.5zM19.198.5V0h-.207l-.147.146.354.354zM68.21 75.703l-.276.417.275-.417zm13.563 9.494l-.321.382.321-.382zm6.846 6.944l-.388.316.388-.316zm4.064-.699l-.48-.138.48.138zm2.963-10.26l.48.139-.48-.139zm-.583-2.084l.346-.361-.346.36zm-6.673-8.96l.463-.188-.463.187zm-6.947-19.316l-.222.448.038.017.184-.465zm-14.888-5.238l.058-.497-.058.497zM58 48.198l.274.418-.274-.418zm-.74 4.915l-.15.477.15-.477zm3.342 2.62l.422-.268-.422.267zm-.761-.983l-.364.343.364-.343zm6.715-2.475l-.172-.469.172.47zm-4.962 4.765l-.38.326.38-.326zm7.006-3.6l.283-.412-.283.413zm2.257 2.62l.493-.083-.493.083zm-5.06 5.045l-.326.38.325-.38zm2.624-.223l-.39-.312.39.312zm20.305-16.777l.173.47-.173-.47zm-12.219 4.503l-.173-.469.173.47zm11.242-7.111l.178.467-.178-.467zM52 56.06l-.316-.388c-.164.134-.226.356-.155.556.071.199.26.332.471.332v-.5zm5.624 6.22l.415-.28-.415.28zm31.923-19.975l.468-.177-.468.177zM57.834 62.593l.416-.278-.416.278zM83.5 7l.5-.014c-.008-.27-.23-.486-.5-.486s-.492.216-.5.486l.5.014zm-.946 3.82l-.402-.296.402.296zm1.892 0l-.403.297.403-.297zM83.5 16l-.5.014c.008.27.23.486.5.486s.492-.216.5-.486L83.5 16zm-.946-3.82l.403-.297-.403.297zm1.892 0l-.403-.297.403.297zM37.033 54.482c-.088-.262-.371-.403-.633-.316-.262.087-.404.37-.316.632l.948-.316zm.427 2.865l.475-.158-.475.158zm.185.039l.373.334-.373-.334zm4.39-4.894l-.372-.334.372.334zm.386 6.094l.395.307-.395-.307zm3.127-4.02l-.395-.307.395.307zm.166-.008l.364-.342-.364.342zm2.204 2.342l.364-.343-.364.343zm.171-.015l-.418-.274.418.274zm2.747-3.282c.151-.232.087-.541-.144-.693-.231-.151-.541-.086-.693.145l.837.547zm-.535 2.41c-.269.065-.434.335-.37.604.065.268.335.434.604.37l-.234-.973zm2.316.473c.268-.064.434-.334.37-.603-.065-.268-.335-.434-.604-.37l.234.973zM2.687 70.442h42.127v-1H2.686v1zM0 8.686v59.07h1V8.686H0zm44.814 61.756c1.483 0 2.686-1.203 2.686-2.686h-1c0 .931-.755 1.686-1.686 1.686v1zm-42.128-1c-.931 0-1.686-.755-1.686-1.686H0c0 1.483 1.203 2.686 2.686 2.686v-1zM1 8.686C1 7.755 1.755 7 2.686 7V6C1.203 6 0 7.203 0 8.686h1zm49.814 58.756c1.483 0 2.686-1.203 2.686-2.686h-1c0 .931-.755 1.686-1.686 1.686v1zm-42.628-1c-.931 0-1.686-.755-1.686-1.686h-1c0 1.483 1.203 2.686 2.686 2.686v-1zM6.5 5.186c0-.931.755-1.686 1.686-1.686v-1C6.703 2.5 5.5 3.703 5.5 5.186h1zm10.512 3.012H11v1h6.012v-1zm-6.512.5v53.058h1V8.698h-1zM55.814 0H19.198v1h36.616V0zM18.698.5v6.012h1V.5h-1zm-5.512 62.942c-.931 0-1.686-.755-1.686-1.686h-1c0 1.483 1.203 2.686 2.686 2.686v-1zm3.826-54.244c1.483 0 2.686-1.203 2.686-2.686h-1c0 .93-.755 1.686-1.686 1.686v1zM58.5 2.686C58.5 1.203 57.297 0 55.814 0v1c.931 0 1.686.755 1.686 1.686h1zm9.435 73.434c5 3.299 6.93 3.919 13.518 9.46l.643-.766c-6.646-5.59-8.686-6.28-13.61-9.529l-.55.835zm13.518 9.46c2.865 2.41 5.143 4.865 6.78 6.877l.775-.631c-1.67-2.054-3.992-4.556-6.912-7.012l-.643.765zm11.712 6.001l2.962-10.26-.96-.278-2.963 10.26.96.278zm2.245-12.844c-2.07-1.986-5.238-5.528-6.555-8.787l-.928.374c1.402 3.467 4.702 7.131 6.79 9.135l.693-.722zm-6.555-8.787c-.476-1.176-.84-2.828-1.198-4.72-.353-1.87-.699-3.969-1.135-5.962-.436-1.996-.973-3.934-1.728-5.507-.75-1.565-1.754-2.845-3.166-3.404l-.368.93c1.069.423 1.926 1.434 2.633 2.907.703 1.466 1.22 3.313 1.652 5.287.433 1.976.77 4.031 1.13 5.935.356 1.884.735 3.629 1.252 4.909l.927-.375zm-22.24-24.863c-2.89-.336-6.349 1.025-8.89 2.693l.55.836c2.456-1.613 5.673-2.833 8.224-2.536l.115-.993zm-8.89 2.693c-1.362.894-2.511 1.91-3.193 2.86-.34.474-.588.966-.663 1.447-.078.502.037.997.426 1.382l.703-.711c-.123-.123-.179-.277-.141-.518.04-.263.194-.607.488-1.017.584-.815 1.624-1.75 2.93-2.607l-.55-.836zm-.314 4.856c-1.1-.348-2.215-.353-2.986.03l.443.895c.457-.226 1.283-.274 2.241.029l.302-.954zm3.613 2.83c-.248-.393-.524-.745-.82-1.059l-.727.686c.252.267.489.569.702.906l.845-.534zm-.82-1.059c-.84-.891-1.837-1.468-2.793-1.77l-.302.953c.803.254 1.65.742 2.368 1.503l.728-.686zm6.18-2.6l-6.716 2.474.346.938 6.715-2.474-.346-.939zm-4.41 4.907c-.388-.45-.712-.873-.95-1.249L60.18 56c.273.432.63.895 1.036 1.367l.758-.652zm4.374-3.984c.514.236 1.256.634 1.97 1.123l.565-.825c-.765-.525-1.557-.95-2.118-1.207l-.417.909zm1.97 1.123c.521.358 1.014.755 1.389 1.164.382.415.602.798.657 1.126l.986-.166c-.102-.605-.47-1.162-.907-1.637-.444-.483-1.002-.929-1.56-1.312l-.566.825zm-6.35 3.518c.601-.68 1.666-1.676 2.888-2.434 1.238-.768 2.537-1.23 3.645-1.006l.198-.98c-1.49-.301-3.069.328-4.37 1.136-1.32.819-2.458 1.884-3.11 2.622l.75.662zm4.153 3.354c-.484-.414-1.011-.88-1.542-1.368l-.677.736c.54.498 1.076.97 1.57 1.392l.65-.76zm-1.542-1.368c-.933-.86-1.87-1.788-2.606-2.643l-.758.652c.77.897 1.74 1.854 2.687 2.727l.677-.736zm5.785-3.214c.03.174.007.423-.092.752l.957.29c.122-.404.186-.821.121-1.208l-.986.166zm-.092.752c-.32 1.057-1.284 2.48-2.242 3.675l.781.625c.959-1.197 2.037-2.752 2.418-4.01l-.957-.29zm-5.588 3.062c.374-.716 1.13-1.702 2.15-2.318.998-.6 2.243-.85 3.7-.149l.433-.9c-1.805-.871-3.409-.554-4.649.193-1.215.733-2.084 1.876-2.52 2.71l.886.464zm23.87-16.32l-12.22 4.502.346.938 12.22-4.503-.347-.938zm-12.22 4.502l-9.95 3.667.345.939 9.951-3.668-.346-.938zm5.331 2.234c-1.179-.583-2.962-1.404-4.968-2.227l-.38.925c1.985.815 3.747 1.626 4.905 2.199l.443-.897zm-8.705-3.65c-2.24-.78-4.506-1.422-6.346-1.636l-.115.993c1.73.202 3.914.814 6.132 1.586l.329-.944zM57.438 53.58l15.535-5.92-.356-.934-15.535 5.919.356.934zm15.535-5.92l14.954-5.697-.356-.934-14.954 5.697.356.934zm-18.548 5.004c-.312.154-.616.373-.834.71-.22.339-.32.752-.303 1.242l.999-.034c-.011-.33.057-.531.144-.666.09-.138.229-.252.437-.356l-.443-.896zm-.954 1.548l-1.787 1.46.632.774 1.787-1.46-.632-.774zm-.183.404c.015.456.132.987.356 1.611l.942-.337c-.204-.567-.288-.99-.299-1.308l-1 .035zm.356 1.611c.509 1.417 1.608 3.426 3.565 6.331l.83-.558c-1.947-2.89-2.989-4.816-3.453-6.11l-.942.337zM52 56.56h2.115v-1H52v1zm37.08-14.078c.175.464-.061.983-.527 1.154l.346.938c.987-.363 1.488-1.462 1.116-2.446l-.936.354zm.935-.354c-.371-.98-1.466-1.471-2.444-1.098l.356.934c.461-.176.978.056 1.152.518l.936-.354zm6.112 39.193c.27-.936-.03-1.925-.717-2.584l-.692.722c.435.417.61 1.027.448 1.584l.961.278zm-7.895 11.136c.69.849 1.776 1.138 2.736.98.962-.157 1.887-.782 2.197-1.856l-.961-.277c-.18.626-.73 1.037-1.398 1.147-.67.11-1.372-.101-1.798-.625l-.776.63zm-22.76-30.972c.996.853 2.504.753 3.339-.29l-.78-.625c-.468.583-1.323.657-1.91.155l-.65.76zM8.185 67.442H47v-1H8.186v1zm38.814 0h3.814v-1H47v1zm.5.314v-.814h-1v.814h1zm-34.314-3.314H53v-1H13.186v1zm39.814 0h2.814v-1H53v1zm.5.314v-.814h-1v.814h1zm-48-59.57V6.5h1V5.186h-1zm0 1.314v58.256h1V6.5h-1zM6 6H2.686v1H6V6zm10.698-3.5H8.186v1h8.512v-1zm-5.344 6.551l5.697-5.697-.707-.708-5.698 5.698.708.707zm5.697-5.697l2.5-2.5-.707-.708-2.5 2.5.707.708zM58.5 48.198V2.686h-1v45.512h1zm-1.29 14.361l.208.312.832-.556-.211-.314-.83.558zm.208.312c1.108 1.657 2.004 3.101 2.804 4.391.798 1.287 1.505 2.427 2.228 3.462 1.456 2.083 2.98 3.743 5.485 5.396l.55-.835c-2.38-1.57-3.818-3.135-5.215-5.134-.705-1.008-1.397-2.124-2.198-3.416-.8-1.29-1.704-2.747-2.822-4.42l-.832.556zm-1.604 1.57c1.12 0 2.078-.685 2.482-1.657l-.924-.383c-.254.612-.856 1.04-1.558 1.04v1zM83 6.987c-.027.996-.073 1.647-.195 2.17-.117.502-.308.898-.653 1.368l.805.593c.414-.563.67-1.082.822-1.735.147-.632.194-1.375.22-2.368L83 6.986zm0 .028c.027.993.074 1.736.221 2.368.152.653.408 1.172.822 1.735l.805-.593c-.345-.47-.536-.866-.653-1.369-.122-.522-.168-1.173-.195-2.169l-1 .028zm1 8.972c-.027-.993-.074-1.736-.221-2.368-.152-.653-.408-1.172-.822-1.735l-.805.593c.345.47.536.866.653 1.369.122.522.168 1.173.195 2.169l1-.028zm0 .028c.027-.996.073-1.646.195-2.17.117-.502.308-.898.653-1.368l-.805-.593c-.414.563-.67 1.082-.822 1.735-.147.632-.194 1.375-.22 2.368l.999.028zm.043-4.897c.168.227.168.539 0 .766l.805.593c.428-.58.428-1.372 0-1.952l-.805.593zm-1.891-.593c-.428.58-.428 1.372 0 1.952l.805-.593c-.168-.227-.168-.539 0-.766l-.805-.593zM36.084 54.798l.902 2.707.949-.316-.903-2.707-.948.316zm1.934 2.922l4.39-4.894-.745-.668-4.39 4.894.745.668zm3.708-5.155v5.954h1v-5.954h-1zm1.09 6.328l3.127-4.02-.79-.614-3.126 4.02.789.614zm2.534-3.992l2.204 2.342.728-.686-2.204-2.341-.728.685zm3.158 2.258l2.328-3.556-.837-.548-2.328 3.556.837.548zm2.026-.173l2.083-.5-.234-.972-2.082.5.233.972zm-2.98.257c.27.287.738.246.954-.084l-.837-.548c.138-.211.438-.238.611-.053l-.728.685zm-1.611-2.37c-.148.19-.429.203-.593.028l.728-.685c-.256-.273-.695-.252-.925.043l.79.614zm-4.217 3.646c0 .58.734.832 1.09.374l-.79-.614c.229-.294.7-.132.7.24h-1zm.681-5.693c-.239.267-.681.097-.681-.261h1c0-.56-.69-.823-1.063-.407l.744.668zm-5.42 4.68c.147.443.718.562 1.03.214l-.744-.668c.2-.223.567-.147.662.137l-.949.316z"/>
</svg>
