<svg width="1067" height="829" viewBox="0 0 1067 829" fill="none" xmlns="http://www.w3.org/2000/svg">
<g filter="url(#filter0_d)">
<path d="M1051.62 100.739C1054.69 101.096 1057 103.696 1057 106.786C1057 108.505 1056.27 110.144 1055 111.298L1043.5 121.712L1035.89 128.601C1034.16 130.171 1031.89 131.005 1029.55 130.926L1023.88 130.735C1022.27 130.681 1020.68 131.058 1019.27 131.826L1018.6 132.192C1015 134.151 1013.18 138.295 1014.17 142.272L1014.65 144.21C1014.83 144.922 1014.92 145.652 1014.92 146.386V146.58C1014.92 150.011 1012.97 153.144 1009.89 154.657L997.915 160.541C995.548 161.704 993.81 163.846 993.161 166.401L990.844 175.515C990.66 176.24 990.567 176.985 990.567 177.733V200.169C990.567 202.276 991.306 204.317 992.656 205.935L1004.14 219.703C1005.83 221.728 1006.45 224.438 1005.82 226.996C1005.17 229.559 1003.35 231.661 1000.9 232.651L993.095 235.803C989.84 237.118 987.708 240.278 987.708 243.789C987.708 246.955 985.972 249.865 983.186 251.369L975.425 255.558L969.334 258.834C968.023 259.538 966.559 259.907 965.071 259.907H957.711C955.292 259.907 952.976 260.88 951.283 262.608L935.216 279.003C933.877 280.369 933.888 282.559 935.24 283.912C935.767 284.439 936.112 285.122 936.223 285.859L939.344 306.551C939.597 308.226 939.371 309.939 938.694 311.492L933.893 322.496L926.978 338.382C926.341 339.845 924.797 340.694 923.22 340.448C921.687 340.209 920.494 338.991 920.285 337.453L919.968 335.111C919.65 332.767 917.714 330.978 915.352 330.847C911.445 330.63 908.852 334.828 910.795 338.224L914.914 345.425C915.182 345.892 915.49 346.334 915.836 346.746L922.981 355.248C924.815 357.431 925.506 360.353 924.845 363.127L921.759 376.063C921.539 376.984 921.176 377.863 920.682 378.67L915.376 387.348C914.583 388.644 913.173 389.435 911.653 389.435C909.105 389.435 907.099 387.261 907.303 384.721L907.778 378.807C907.934 376.862 907.454 374.919 906.41 373.27L903.104 368.05C902.26 366.718 901.082 365.631 899.686 364.898L897.133 363.557C894.391 362.117 892.582 359.367 892.345 356.278L891.873 350.126C891.813 349.349 891.855 348.567 891.997 347.801L894.21 335.838C894.471 334.427 893.853 332.999 892.647 332.222C891.226 331.307 889.357 331.525 888.185 332.743L884.335 336.743C881.737 339.443 881.083 343.471 882.694 346.854L882.918 347.323C883.431 348.401 883.725 349.569 883.782 350.761L884.291 361.35C884.43 364.251 886.125 366.852 888.723 368.151C890.219 368.899 891.444 370.096 892.228 371.574L897.33 381.197C897.724 381.941 898.012 382.737 898.186 383.561L899.414 389.404L899.977 392.048C900.206 393.127 900.158 394.246 899.836 395.301C898.621 399.283 901.406 403.365 905.556 403.687L906.777 403.782C907.619 403.848 908.444 404.055 909.217 404.395L911.031 405.194C914.049 406.523 915.739 409.772 915.094 413.006L915.008 413.436C914.496 416.003 915.603 418.622 917.8 420.046L918.954 420.793C920.249 421.632 920.968 423.123 920.818 424.659C920.721 425.655 920.265 426.581 919.535 427.266L918.988 427.781C916.235 430.365 916.454 434.801 919.448 437.102L922.41 439.377C924.627 441.081 925.927 443.718 925.927 446.514V450.291C925.927 452.764 924.636 455.059 922.522 456.343C919.197 458.362 918.068 462.651 919.968 466.046L920.371 466.766C921.558 468.888 921.727 471.432 920.83 473.692L920.085 475.57C918.918 478.509 916.295 480.621 913.174 481.132L893.613 484.334C889.261 485.046 886.067 488.806 886.067 493.216V495.956C886.067 497.404 885.718 498.831 885.048 500.115L878.679 512.338C877.446 514.705 875.225 516.402 872.617 516.972L865.523 518.52C863.075 519.054 860.96 520.586 859.688 522.745L859.372 523.281L852.075 535.702C851.183 537.221 850.756 538.97 850.848 540.73L850.932 542.344C851.06 544.795 850.181 547.193 848.499 548.981L833.906 564.489C832.462 566.023 830.449 566.893 828.342 566.893C825.352 566.893 822.637 568.637 821.394 571.357L818.186 578.374C817.369 580.16 815.991 581.629 814.262 582.559L809.351 585.198C807.486 586.201 806.278 588.104 806.164 590.22L803.729 629.035C803.594 631.188 804.236 633.317 805.539 635.036L810.079 641.026C810.846 642.037 811.39 643.199 811.676 644.435L814.395 656.197C814.48 656.565 814.674 656.9 814.951 657.158L819.915 661.398C821.916 663.107 823.069 665.608 823.069 668.241V670.956C823.069 673.587 824.22 676.086 826.22 677.796L839.846 689.448C841.588 690.938 842.696 693.037 842.944 695.315L844.407 708.77C844.531 709.914 844.874 711.024 845.417 712.039L851.892 724.157L865.085 748.777C865.786 750.084 866.152 751.544 866.152 753.028V782.096C866.152 787.066 862.123 791.096 857.152 791.096H836.509C836.263 791.096 836.13 790.873 836.052 790.639C835.324 788.762 832.124 785.51 829.855 783.359C828.377 781.959 826.365 781.3 824.335 781.458L823.333 781.536C819.469 781.837 816.167 778.782 816.167 774.906V773.234C816.167 770.484 813.938 768.256 811.189 768.256C809.464 768.256 807.862 767.363 806.955 765.896L806.107 764.524C805.489 763.524 805.161 762.372 805.161 761.196V759.774C805.161 757.24 803.195 755.141 800.666 754.975C799.379 754.891 798.18 754.294 797.338 753.317L787.149 741.502C786.216 740.42 785.829 738.971 786.099 737.568L786.487 735.545C786.895 733.423 785.112 731.521 782.968 731.792C781.666 731.956 780.396 731.303 779.773 730.148L778.4 727.605C777.835 726.56 777.675 725.343 777.949 724.188L780.479 713.179C780.696 712.232 780.759 711.255 780.664 710.288L779.25 695.829C778.939 692.647 776.812 689.932 773.796 688.869C772.51 688.416 771.358 687.651 770.442 686.643L753.557 668.068C752.001 666.355 749.845 665.308 747.537 665.144L736.413 664.352C734.594 664.222 732.778 664.649 731.207 665.574L714.036 675.688C713.292 676.126 712.489 676.455 711.652 676.664L710.886 676.856C707.212 677.774 703.357 676.295 701.24 673.155L694.62 663.334C693.078 661.047 690.573 659.594 687.823 659.389L658.582 657.219L654.196 656.9C653.788 656.87 653.382 656.983 653.048 657.219L645.909 662.513C644.034 663.903 641.406 663.619 639.87 661.862C638.235 659.99 635.389 659.808 633.529 661.457L631.661 663.113C630.396 664.234 628.765 664.856 627.075 664.863L608.47 664.938C603.514 664.958 599.506 668.981 599.506 673.938V675.312C599.506 677.052 598.95 678.746 597.919 680.148C595.554 683.36 595.86 687.812 598.642 690.671L604.385 696.574C606.889 699.148 606.364 703.378 603.307 705.261C601.694 706.254 599.69 706.366 597.977 705.56L586.242 700.035C582.553 698.298 578.158 699.258 575.529 702.374L571.689 706.927C569.972 708.961 567.442 710.132 564.78 710.123L557.068 710.098C553.065 710.085 549.552 707.43 548.447 703.583L546.436 696.584C545.576 693.589 543.228 691.253 540.23 690.407L529.876 687.486C526.674 686.582 523.495 688.988 523.495 692.315C523.495 694.021 522.629 695.61 521.194 696.534L521.035 696.637C519.774 697.449 518.231 697.696 516.779 697.319L490.465 690.476C489.726 690.284 488.965 690.186 488.2 690.186H478.673C477.414 690.186 476.17 690.45 475.019 690.961L440.606 706.249C438.115 707.356 436.509 709.826 436.509 712.552C436.509 714.845 435.369 716.988 433.469 718.27L424.742 724.157L421.748 726.174C420.774 726.831 419.681 727.29 418.531 727.526L405.99 730.103C403.667 730.58 401.627 731.955 400.312 733.927L398.073 737.287C396.672 739.389 394.396 740.745 391.881 740.976C388.824 741.257 386.167 743.19 384.96 746.013L383.005 750.585C382.405 751.987 381.195 753.038 379.722 753.436C377.518 754.031 376.001 756.048 376.039 758.33L376.346 776.697C376.361 777.593 376.228 778.483 376.043 779.359C375.284 782.963 375.47 787.09 376.065 791.096C377.021 797.359 379.075 803.448 380.51 807.198C381.36 809.419 380.714 811.98 378.824 813.425C377.53 814.415 375.84 814.726 374.279 814.262L354.843 808.492C340.705 805.755 332.009 798.182 326.78 791.096C321.895 784.502 319.982 778.339 319.551 776.783C319.481 776.53 319.433 776.272 319.394 776.013C318.434 769.629 317.203 765.648 316.365 763.472C315.815 762.046 314.696 760.983 313.466 760.076C301.456 751.227 292.452 726.911 291.847 725.25C291.824 725.188 291.805 725.129 291.782 725.067C291.667 724.743 291.528 724.465 291.389 724.188C284.123 706.766 274.567 695.961 270.194 691.606C268.708 690.126 266.678 689.395 264.581 689.395H257.506C255.539 689.395 253.665 688.563 252.345 687.105C251.085 685.711 249.314 684.887 247.436 684.819L236.925 684.44C231.831 684.256 227.601 688.336 227.601 693.434V695.548C227.601 698.342 226.303 700.977 224.089 702.681L216.816 708.277C214.64 709.952 211.792 710.602 209.232 709.61C193.917 703.677 182.46 687.547 178.651 681.616C177.723 680.172 177.328 678.479 177.415 676.765L177.834 668.5C177.948 666.252 177.215 664.042 175.78 662.307L171.596 657.249L134.116 611.849C132.556 609.961 130.295 608.789 127.852 608.604L96.3755 606.229C91.8962 605.891 87.8536 608.907 86.9023 613.297L86.6817 614.315C85.697 618.859 81.4127 621.905 76.7971 621.343L9.9968 613.202C8.73431 613.048 7.51877 612.628 6.4303 611.97L-29.407 590.311L-75.7738 562.311C-78.4722 560.681 -80.1214 557.759 -80.1214 554.606V554.452C-80.1214 549.482 -84.1508 545.452 -89.1214 545.452H-133.836C-138.491 545.452 -142.378 541.902 -142.799 537.267L-144.062 523.372L-144.437 519.132C-144.728 515.847 -146.868 513.015 -149.949 511.837L-150.85 511.493C-153.646 510.423 -155.494 507.74 -155.494 504.745V502.812C-155.494 499.89 -157.862 497.522 -160.784 497.522C-163.365 497.522 -165.569 495.66 -166 493.115L-166.099 492.532C-166.492 490.217 -168.199 488.345 -170.467 487.743L-172.212 487.279C-174.013 486.8 -175.615 485.763 -176.788 484.315L-188.161 470.279C-189.634 468.461 -191.759 467.288 -194.083 467.009L-208.151 465.324C-209.86 465.119 -211.475 464.428 -212.804 463.334L-215.958 460.735C-216.99 459.884 -217.392 458.486 -216.969 457.218L-216.735 456.516C-216.73 456.502 -216.723 456.49 -216.713 456.48C-216.703 456.47 -216.695 456.458 -216.691 456.444L-214.912 451.249C-214.093 448.856 -214.319 446.229 -215.534 444.011L-216.059 443.052L-216.848 441.033C-217.67 438.929 -217.671 436.592 -216.85 434.488L-216.566 433.757C-215.732 431.621 -215.746 429.247 -216.604 427.12L-218.704 421.916L-220.559 417.323L-227.618 399.879C-228.035 398.85 -228.682 397.931 -229.51 397.192L-230.001 396.753C-231.228 395.657 -231.93 394.09 -231.93 392.444C-231.93 390.98 -231.374 389.569 -230.374 388.499L-228.394 386.382C-227.013 384.904 -226.245 382.957 -226.245 380.934C-226.245 379.04 -226.918 377.207 -228.146 375.765L-233.351 369.645C-234.804 367.937 -235.567 365.748 -235.49 363.507L-234.913 346.659C-234.833 344.31 -235.675 342.022 -237.259 340.286L-240.759 336.448C-242.403 334.646 -243.245 332.252 -243.091 329.817L-242.701 323.625C-242.578 321.669 -243.096 319.727 -244.177 318.092L-250.396 308.692C-251.456 307.09 -251.975 305.191 -251.878 303.272L-251.095 287.747C-251.068 287.213 -250.994 286.682 -250.872 286.161L-249.251 279.192C-248.59 276.348 -249.349 273.359 -251.288 271.176L-257.174 264.549C-259.99 261.38 -260.211 256.674 -257.706 253.254L-254.247 248.533L-241.739 228.118C-240.646 226.334 -240.209 224.225 -240.502 222.154L-241.238 216.961C-241.511 215.029 -241.15 213.06 -240.207 211.351L-238.606 208.45C-237.954 207.268 -237.576 205.955 -237.501 204.607L-236.089 179.443C-236.013 178.097 -235.636 176.784 -234.985 175.603L-220.65 149.6L-211.067 132.226C-210.333 130.895 -209.948 129.4 -209.948 127.879V122.397C-209.948 120.583 -209.4 118.812 -208.376 117.316L-205.6 113.257L-202.61 108.939C-202.093 108.193 -201.692 107.372 -201.42 106.506L-194.093 83.1243C-193.82 82.2533 -193.682 81.3459 -193.682 80.4331V77.8413C-193.682 75.6924 -192.913 73.6144 -191.514 71.9831L-190.407 70.6916C-187.968 67.8477 -187.546 63.7908 -189.348 60.5061L-189.625 60.0009C-190.409 58.5703 -190.79 56.9534 -190.726 55.323L-190.367 46.1031C-190.328 45.1089 -189.909 44.1677 -189.196 43.4738L-186.772 41.1143C-185.449 39.8266 -186.183 37.5807 -188.012 37.3232C-189.142 37.164 -189.967 36.1741 -189.921 35.0336L-189.701 29.6237C-189.644 28.2152 -190.416 26.9032 -191.675 26.2689C-192.887 25.6582 -193.651 24.4169 -193.651 23.0598V20.2524C-193.651 19.2885 -193.48 18.3322 -193.146 17.428L-190.596 10.5226C-190.002 8.91441 -188.469 7.84648 -186.755 7.84648C-185.05 7.84648 -183.524 8.90233 -182.923 10.4973L-181.65 13.8757C-180.754 16.253 -178.895 18.1409 -176.532 19.0736L-167.702 22.5583C-167.125 22.786 -166.526 22.9535 -165.915 23.058L-159.607 24.1367C-155.562 24.8282 -152.605 28.3338 -152.605 32.4367C-152.605 34.1865 -153.15 35.8928 -154.165 37.3185L-157.273 41.6861C-158.192 42.9783 -159.491 43.9521 -160.989 44.4722C-164.397 45.6549 -166.506 49.1064 -166.055 52.6849C-165.566 56.5609 -162.263 59.5177 -158.356 59.5177H-157.505C-154.92 59.5177 -152.469 58.3706 -150.812 56.3861L-147.368 52.2598C-146.018 50.6416 -145.278 48.6006 -145.278 46.4928V39.9312C-145.278 38.8885 -144.922 37.8771 -144.268 37.0645C-142.95 35.426 -142.919 33.1 -144.193 31.427L-145.545 29.6515C-147.354 27.2747 -147.564 24.0448 -146.075 21.4545L-143.849 17.5786L-143.025 15.5732C-142.419 14.0985 -142.759 12.4042 -143.886 11.2766C-144.991 10.1711 -145.341 8.51805 -144.778 7.05957L-144.205 5.57376C-142.994 2.43522 -139.561 0.769382 -136.346 1.76097L-91.675 15.5409L-29.4374 32.2071L-8.12396 36.921L-5.44839 37.4989L26.7802 42.6995L100.663 54.5908L102.973 54.895L128.878 57.9971L260.529 73.9333L272.629 74.4807L281.568 74.8761L375.031 78.9818L389.473 78.0086L425.017 75.6108C427.087 75.4712 428.695 73.7511 428.695 71.6762C428.695 68.6256 432.01 66.7302 434.639 68.2775L436.989 69.6609C438.67 70.6498 439.701 72.454 439.701 74.4036V78.3311C439.701 82.1324 442.089 85.5238 445.668 86.8047L457.806 91.1487C460.626 92.1582 463.777 91.3518 465.766 89.1115C467.716 86.9149 470.788 86.0927 473.574 87.0218L482.881 90.1251C484.918 90.8041 486.645 92.1888 487.75 94.0292L489.238 96.5071C490.332 98.3287 492.036 99.7045 494.046 100.391L504.797 104.06C506.614 104.681 508.582 104.704 510.412 104.126L518.59 101.546C519.917 101.127 521.322 101.022 522.696 101.238L543.195 104.462C546.74 105.019 550.278 103.417 552.197 100.385L553.611 98.1525C555.098 95.8048 557.585 94.2754 560.351 94.0086L561.087 93.9377C563.273 93.7268 565.307 92.7235 566.805 91.1169L574.024 83.3756C575.175 82.141 575.679 80.4372 575.385 78.775C575.175 77.5889 575.37 76.3668 575.938 75.3047L576.219 74.7797C577.501 72.3832 580.039 70.9295 582.754 71.0365L606.74 71.9811C608.354 72.0446 609.921 72.5411 611.276 73.4186L612.918 74.4813C614.212 75.3185 615.268 76.4736 615.988 77.8362L624.257 93.5062C625.761 96.3551 628.672 98.1832 631.891 98.2997L635.847 98.4429C637.404 98.4992 638.822 97.5528 639.367 96.0936C640.158 93.9778 642.673 93.0956 644.612 94.2537L648.001 96.2776C649.927 97.4277 651.175 99.441 651.348 101.677L651.597 104.902C651.784 107.319 653.058 109.521 655.06 110.887C657.16 112.32 658.453 114.666 658.543 117.205L658.703 121.742C658.755 123.582 660.207 125.077 662.045 125.182L662.197 125.191C664.161 125.304 665.696 126.929 665.696 128.897V130.958C665.696 132.832 666.587 134.593 668.096 135.704L671.641 138.315C672.807 139.174 673.731 140.318 674.325 141.639C675.757 144.821 679.005 146.79 682.488 146.586L704.34 145.312L742.162 144.538C744.593 144.488 746.94 145.424 748.67 147.132L761.817 160.114C762.254 160.545 762.645 161.019 762.985 161.529L772.649 176.042C774.368 178.622 774.469 181.954 772.912 184.634C771.457 187.139 768.778 188.68 765.881 188.68H756.587C753.99 188.68 751.52 187.559 749.811 185.605L744.574 179.615C743.88 178.821 742.721 178.627 741.806 179.153C741.029 179.6 740.598 180.471 740.715 181.36L741.677 188.68L742.167 192.367C742.421 194.279 742.055 196.221 741.122 197.909L735.708 207.698C734.619 209.668 734.307 211.974 734.834 214.162L738.373 228.848C739.184 232.216 737.99 235.752 735.302 237.938L729.769 242.438C727.806 244.034 726.606 246.383 726.462 248.91L726.079 255.649L725.853 259.581C725.641 263.266 723.201 266.447 719.697 267.608L714.942 269.183C713.241 269.746 712.093 271.335 712.093 273.126C712.093 275.332 713.818 277.154 716.021 277.274L722.742 277.641C725.519 277.792 728.21 276.652 730.032 274.551L746.45 255.619C747.85 254.008 749.918 253.14 752.048 253.271L765.159 254.071C767.365 254.206 769.544 253.524 771.28 252.156L783.517 242.508C785.184 241.194 787.261 240.511 789.382 240.58L794.169 240.736C796.662 240.817 798.974 239.439 800.089 237.208L800.341 236.704C801.079 235.228 801.081 233.492 800.346 232.015C799.351 230.014 797.2 228.861 794.983 229.14L791.588 229.569C788.239 229.992 785.122 227.787 784.405 224.489C783.926 222.287 784.618 219.995 786.236 218.426L795.714 209.234C796.313 208.652 796.991 208.157 797.727 207.763L816.381 197.761C817.813 196.993 819.426 196.627 821.049 196.702L830.74 197.15C833.138 197.261 834.912 194.947 834.183 192.66L833.965 191.978C833.546 190.662 834.201 189.245 835.474 188.711L857.296 179.592C859.319 178.746 860.965 177.191 861.922 175.217L865.758 167.316C866.279 166.242 867.009 165.282 867.905 164.493L881.931 152.135C883.049 151.15 884.395 150.458 885.847 150.121L943.947 136.645C946.895 135.961 949.302 133.841 950.353 131.003L951.123 128.925C952.122 126.227 954.351 124.17 957.121 123.389L962.747 121.803C962.805 121.783 962.854 121.742 962.881 121.687L964.464 118.56C965.016 117.47 965.333 116.276 965.395 115.056L965.549 112.05C965.638 110.313 966.763 108.801 968.401 108.217C970.188 107.58 971.347 105.847 971.253 103.951L971.076 100.4C971.017 99.2105 970.722 98.0446 970.209 96.9698L967.413 91.1155C966.575 89.3591 966.328 87.3782 966.71 85.4698L971.392 62.0969C972.235 57.8913 975.928 54.8645 980.217 54.8645H1011.05C1014.97 54.8645 1018.43 57.3976 1019.62 61.129L1027 84.2334C1027.8 86.7425 1030.08 88.486 1032.71 88.6008C1035.8 88.7359 1038.34 91.1446 1038.68 94.2248C1039.01 97.1735 1041.33 99.5407 1044.28 99.8839L1051.62 100.739Z" fill="#FFF1E3"/>
</g>
<path d="M803.5 329.5L904 319.5L908 331.5L911.5 361H925.5C924.833 364.667 922.566 372.237 922 374.5C921.5 376.5 917.743 386.879 913.5 389C908.5 391.5 906.5 385 907 383C907.5 381 909 375 901 365.5C898.167 364.167 892.682 363.703 892 354.5C891.667 350 892 340 894 337C895 332.5 891 329 887 334C883 339 880.5 340.5 883.5 348.5C884.5 351 883.723 360.28 884.5 363C885.5 366.5 890 368.5 891 370C892 371.5 875 372 874 360C873.2 350.4 871.5 348.5 870.5 347.5C849.5 346 857 340 857 340C854.905 340.221 853.27 338.815 851.599 337.84L849.5 337C846.66 336.553 845.196 334.464 843.902 332.468L839 328.5C834.338 328.729 830.247 334.36 830.5 334.5C830.5 334.5 825 335.5 822.5 335.5C820.379 335.5 807 350 807 350L803.5 329.5Z" fill="#353AB0"/>
<path d="M839 328.5C834.338 328.729 830.247 334.36 830.5 334.5C830.5 334.5 825 335.5 822.5 335.5C820.379 335.5 807 350 807 350L803.5 329.5L904 319.5C904.5 321 906 325.5 908 331.5L911.5 361H925.5C924.833 364.667 922.566 372.237 922 374.5C921.5 376.5 917.743 386.879 913.5 389C908.5 391.5 906.5 385 907 383C907.5 381 909 375 901 365.5C898.167 364.167 892.682 363.703 892 354.5C891.667 350 892 340 894 337C895 332.5 891 329 887 334C883 339 880.5 340.5 883.5 348.5C884.5 351 883.723 360.28 884.5 363C885.5 366.5 890 368.5 891 370C892 371.5 875 372 874 360C873.2 350.4 871.5 348.5 870.5 347.5C849.5 346 857 340 857 340M839 328.5C843.638 328.272 843.68 336.083 849.5 337M839 328.5L849.5 337M849.5 337C852.012 337.396 854.049 340.311 857 340M849.5 337L857 340" stroke="black"/>
<path d="M1.05774 36.0999L-5.87071 61.8886C-6.32922 63.5953 -6.27515 65.3992 -5.71523 67.0753L-3.46245 73.8191C-2.79085 75.8296 -2.99494 78.0297 -4.02489 79.8823V79.8823C-5.18823 81.9749 -5.3101 84.5135 -4.0138 86.5264C-2.45911 88.9405 0.0042173 92.0494 3.12523 93.6103C7.81814 95.9574 6.54114 108.782 8.58556 113.459C9.179 114.817 10.8192 114.943 12.2862 114.735C15.6978 114.251 21.8239 113.589 21.8239 115.082C21.8239 116.682 15.5962 127.007 12.78 131.595C11.8975 133.032 11.4514 134.684 11.2415 136.358C11.0133 138.177 10.5023 140.557 9.35813 142.088C7.29064 144.856 10.0574 145.555 12.1249 146.924C14.1924 148.323 23.8914 144.156 23.1921 148.323C22.6346 151.645 23.855 157.151 24.3728 159.247C24.5127 159.813 24.7221 160.355 24.9829 160.877L29.883 170.68C30.4835 171.881 30.5644 173.277 30.1067 174.54L30.0788 174.616C29.0354 177.495 32.8911 179.901 32.8911 182.963V182.963C32.8911 185.031 32.1918 187.129 34.9586 189.198C37.2534 190.913 41.9328 191.687 43.4623 191.901C43.7945 191.947 44.1224 191.965 44.4578 191.967C46.5639 191.977 54.7208 192.057 57.1233 192.665C58.4385 192.997 60.3789 193.013 62.0529 192.939C64.2318 192.842 66.1887 191.724 67.8459 190.306C69.6043 188.801 71.8742 187.334 73.0552 188.498C75.1227 190.566 77.2206 196.132 77.2206 196.132" stroke="#212121" stroke-width="0.7688" stroke-miterlimit="10" stroke-linecap="round" stroke-linejoin="round"/>
<path d="M-240.626 199.568C-240.626 199.568 -22.475 266.081 64.7854 272.315" stroke="#212121" stroke-width="0.7688" stroke-miterlimit="10" stroke-linecap="round" stroke-linejoin="round"/>
<path d="M247.607 70.0405C247.607 70.0405 226.84 287.552 225.442 326.359" stroke="#212121" stroke-width="0.7688" stroke-miterlimit="10" stroke-linecap="round" stroke-linejoin="round"/>
<path d="M236.54 196.801C227.54 200.268 162.444 191.266 151.347 191.266C142.971 191.266 106.419 185.709 89.1359 183.006C84.1302 182.223 79.4441 185.663 78.6244 190.662C74.4329 216.228 63.7327 273.134 59.5581 295.201C58.6212 300.153 61.8876 304.869 66.8615 305.682C97.803 310.739 201.26 327.022 263.614 329.24C268.519 329.414 272.43 333.338 272.425 338.246C272.401 362.053 272.011 427.48 268.527 449.335C267.935 453.052 264.589 455.208 260.838 454.904C221.044 451.681 2.0284 433.382 -32.1128 418.296" stroke="#212121" stroke-width="0.7688" stroke-miterlimit="10" stroke-linecap="round" stroke-linejoin="round"/>
<path d="M231.674 264.013C231.674 264.013 357.731 273.714 406.894 268.179" stroke="#212121" stroke-width="0.7688" stroke-miterlimit="10" stroke-linecap="round" stroke-linejoin="round"/>
<path d="M386.129 78.3431C386.129 78.3431 390.963 88.7443 389.595 92.2113C388.196 95.6784 385.43 110.915 390.994 115.751C396.527 120.586 397.227 129.619 397.926 135.154C398.625 140.689 396.527 150.391 397.926 154.557C399.324 158.724 404.858 171.193 404.858 175.329C404.858 177.731 402.323 182.426 400.175 185.973C398.642 188.504 399.371 191.855 401.907 193.379V193.379C403.321 194.229 404.238 195.68 404.372 197.324C405.213 207.647 408.228 245.564 407.625 251.544C406.925 258.478 403.459 270.247 406.226 275.782C408.993 281.318 406.925 293.087 409.692 297.254C412.459 301.42 417.324 312.491 418.692 316.657C420.091 320.824 416.624 340.896 422.857 346.431C429.09 351.966 432.556 360.968 434.624 362.367C436.691 363.766 436.022 369.302 442.924 368.602C449.856 367.903 451.225 368.602 447.758 371.37C444.292 374.137 436.691 376.205 438.759 378.304C440.826 380.372 440.826 379.003 443.593 381.771C444.679 382.857 445.555 384.479 446.218 386.047C447.35 388.727 451.129 391.382 453.432 393.159V393.159C454.907 394.298 454.584 395.306 454.422 397.163C453.911 403.011 452.943 415.823 453.991 418.479C455.39 421.946 453.991 455.187 456.059 457.955C458.126 460.722 453.292 473.891 456.758 479.426C459.344 483.555 459.222 494.625 458.994 499.981C458.911 501.922 459.443 503.853 459.945 505.731C462.827 516.516 459.151 544.244 462.292 554.91C462.424 555.358 462.544 555.787 462.655 556.2C462.73 556.48 472.169 567.318 472.458 567.354V567.354C472.572 567.368 472.657 567.447 472.653 567.562C472.558 570.411 471.486 605.85 476.825 614.489C482.359 623.491 483.058 624.89 483.757 629.026C484.457 633.193 488.591 635.96 489.99 639.427C491.389 642.894 492.757 651.896 489.99 655.364C487.223 658.831 482.359 665.065 484.456 668.532C486.554 671.999 489.291 679.602 486.524 682.4C483.757 685.168 484.456 693.471 484.456 693.471" stroke="#212121" stroke-width="0.7688" stroke-miterlimit="10" stroke-linecap="round" stroke-linejoin="round"/>
<path d="M549.552 103.282C549.552 103.282 503.155 137.922 499.689 142.088C497.693 144.488 497.996 149.41 498.612 153.153C499.117 156.218 498.433 159.43 496.447 161.819C491.683 167.548 483.456 178.105 484.457 181.564C485.855 186.4 487.223 189.198 487.223 196.101C487.223 203.035 487.223 211.338 492.757 213.406C498.291 215.474 505.223 216.174 510.756 221.709C516.29 227.244 515.591 230.011 521.155 232.779C526.688 235.546 526.688 244.549 526.688 247.316C526.688 248.955 528.382 252.298 529.765 254.754C530.853 256.687 531.319 258.928 530.95 261.116L530.416 264.284C530.224 265.428 530.281 266.6 530.584 267.719L530.967 269.131C531.689 271.8 534.111 273.654 536.876 273.654V273.654C538.327 273.654 539.731 274.169 540.837 275.107L548.091 281.26C548.113 281.278 548.131 281.294 548.152 281.312C548.524 281.628 552.356 284.958 553.657 288.921C555.055 293.087 558.491 298.622 554.356 302.09C550.191 305.557 559.19 306.925 550.191 311.791C541.191 316.627 538.424 313.859 537.725 316.627C537.301 318.305 537.391 323.549 537.528 327.418C537.627 330.222 536.474 332.934 534.342 334.759L530.369 338.161C528.85 339.461 527.804 341.225 527.49 343.199C526.455 349.719 524.728 364.789 530.093 368.572C537.026 373.407 550.191 377.574 552.958 383.109C555.724 388.644 555.724 399.745 559.89 403.881C562.821 406.813 564.021 411.794 564.474 414.488C564.681 415.712 565.018 416.917 565.708 417.949C567.459 420.57 571.411 425.539 576.49 426.052C583.423 426.751 584.791 432.986 584.791 435.753C584.791 438.521 575.092 441.988 582.723 446.155C586.59 448.266 589.208 450.018 590.85 451.232C592.379 452.364 593.237 454.118 593.449 456.008L593.465 456.148C593.693 458.187 593.134 460.237 591.9 461.876V461.876C590.477 463.767 588.288 464.907 585.946 465.244C582.457 465.746 577.949 466.832 579.257 469.025C579.851 470.021 580.503 470.901 581.13 471.651C582.824 473.674 584.187 476.078 584.354 478.711L584.773 485.347C584.785 485.536 584.791 485.724 584.779 485.913C584.745 486.476 584.613 487.905 584.092 490.466C583.392 493.933 577.159 496.7 575.791 499.468C574.392 502.236 572.325 516.104 569.558 518.871C566.791 521.639 568.16 523.038 564.724 525.805C561.258 528.573 552.958 540.343 555.724 543.11C558.465 545.852 551.033 549.965 550.892 550.043C550.888 550.046 550.892 550.043 550.888 550.046C550.747 550.124 543.311 554.303 548.822 563.913C554.386 573.614 546.755 579.849 550.221 582.616C551.991 584.03 552.857 585.807 553.281 587.209C553.733 588.705 554.094 590.264 554.869 591.622L556.501 594.484C558.013 597.135 557.004 600.403 554.85 602.565V602.565C553.371 604.049 553.114 606.667 552.258 608.58C549.213 615.383 542.53 631.559 544.688 638.059C546.309 642.923 548.17 645.178 549.433 646.211C550.316 646.933 551.497 646.956 552.619 646.752L581.478 641.499C585.823 640.708 590.1 643.187 591.574 647.351L592.425 649.756C592.922 651.161 593.045 652.666 592.98 654.155C592.858 656.965 593.122 661.563 595.949 662.967L602.881 666.434" stroke="#212121" stroke-width="0.7688" stroke-miterlimit="10" stroke-linecap="round" stroke-linejoin="round"/>
<path d="M106.987 311.882C106.987 311.882 65.5154 610.626 69.4071 623.309" stroke="#212121" stroke-width="0.7688" stroke-miterlimit="10" stroke-linecap="round" stroke-linejoin="round"/>
<path d="M242.651 452.48C243.728 452.48 242.421 463.374 241.662 469.086C241.37 471.285 240.702 473.581 240.378 475.775C237.817 493.124 234.334 573.657 232.896 602.245C232.648 607.182 228.444 610.862 223.511 610.552C200.215 609.083 139.021 605.243 136.266 605.243C132.861 605.243 131.554 608.832 131.554 608.832" stroke="#212121" stroke-width="0.7688" stroke-miterlimit="10" stroke-linecap="round" stroke-linejoin="round"/>
<path d="M267.065 455.4C267.065 455.4 424.985 463.459 456.089 457.955" stroke="#212121" stroke-width="0.7688" stroke-miterlimit="10" stroke-linecap="round" stroke-linejoin="round"/>
<path d="M241.191 472.492C241.191 472.492 287.922 473.814 307.1 474.551C311.585 474.724 315.025 478.262 315.203 482.748L317.166 531.981C317.267 534.499 318.447 536.884 320.37 538.514V538.514C322.443 540.269 325.229 541.021 327.898 540.514L328.813 540.341C331.94 539.746 335.132 540.989 337.035 543.54V543.54C337.867 544.655 338.965 545.544 340.229 546.125L348.218 549.799C349.398 550.341 350.681 550.622 351.979 550.622H356.873C357.504 550.622 358.134 550.556 358.751 550.424L360.872 549.971C363.292 549.455 365.818 549.958 367.856 551.362L371.613 553.95C372.154 554.323 372.477 554.938 372.477 555.595V555.595C372.477 556.829 373.585 557.767 374.802 557.565L381.993 556.369C383.427 556.131 384.899 556.279 386.256 556.799L388.548 557.677C389.856 558.177 391.263 558.366 392.657 558.228L395.433 557.952L400.619 557.214C401.713 557.058 402.826 557.105 403.902 557.353L407.129 558.094C408.121 558.322 409.067 558.716 409.928 559.261L410.324 559.512C412.652 560.985 415.526 561.311 418.124 560.397L420.86 559.435C421.82 559.097 422.83 558.925 423.847 558.925H432.121C433.681 558.925 435.215 558.519 436.572 557.747L437.81 557.042C440.043 555.772 442.732 555.588 445.117 556.542V556.542C445.841 556.832 446.515 557.217 447.14 557.682C449.877 559.721 457.926 565.521 461.653 566.072" stroke="#212121" stroke-width="0.7688" stroke-miterlimit="10" stroke-linecap="round" stroke-linejoin="round"/>
<path d="M271.443 362.155C271.443 362.155 371.322 369.393 434.593 362.367" stroke="#212121" stroke-width="0.7688" stroke-miterlimit="10" stroke-linecap="round" stroke-linejoin="round"/>
<path d="M421.276 344.576C421.276 344.576 429.577 345.549 442.742 345.549C455.907 345.549 505.709 338.706 510.574 338.706C513.94 338.706 517.291 339.397 519.057 339.828C519.908 340.036 520.779 340.166 521.655 340.166H528.087" stroke="#212121" stroke-width="0.7688" stroke-miterlimit="10" stroke-linecap="round" stroke-linejoin="round"/>
<path d="M407.594 251.544C407.594 251.544 432.982 249.415 442.255 251.848C451.529 254.281 490.081 250.874 497.409 250.388C504.736 249.901 526.718 247.377 526.718 247.377" stroke="#212121" stroke-width="0.7688" stroke-miterlimit="10" stroke-linecap="round" stroke-linejoin="round"/>
<path d="M498.868 148.353C498.868 148.353 513.006 144.947 515.955 144.947C518.874 144.947 517.901 140.051 521.823 140.568C525.715 141.054 528.178 144.46 529.151 147.41C530.037 150.069 540.223 150.307 542.04 150.328C542.226 150.33 542.404 150.335 542.589 150.354C544.083 150.504 551.662 151.505 564.268 157.173C573.343 161.253 580.013 163.115 583.626 163.926C585.453 164.335 586.955 165.746 587.322 167.581V167.581C587.55 168.724 588.23 169.726 589.208 170.36L593.856 173.374C595.245 174.275 596.358 175.541 597.074 177.034L601.361 185.974L604.713 192.079C605.407 193.343 605.788 194.755 605.822 196.197L606.165 210.608L605.77 244.579L603.269 263.162C603.094 264.464 603.205 265.786 603.591 267.041C604.035 268.489 604.653 270.526 605.166 272.291C605.553 273.625 605.594 275.038 605.621 276.427C605.643 277.571 605.784 279.165 606.226 281.166C607.199 285.545 609.145 284.085 616.472 287.035C621.469 289.026 623.058 291.258 623.564 292.476C623.806 293.06 623.733 293.703 623.601 294.321C622.921 297.526 620.652 308.271 619.421 314.863C617.962 322.679 625.289 369.545 625.776 374.898C626.124 378.748 626.721 385.088 627.032 388.386C627.166 389.796 626.967 391.211 626.444 392.527C624.857 396.52 621.279 405.457 619.421 409.568C616.989 414.951 619.421 418.357 620.881 420.304C621.392 420.986 621.485 422.209 621.391 423.511C621.157 426.72 618.464 429.054 615.316 429.721C613.281 430.152 610.899 430.637 608.689 431.039C603.307 432.013 609.661 436.909 610.148 439.829C610.193 440.097 610.221 440.353 610.235 440.596C610.366 442.797 607.869 443.192 606.13 441.839V441.839C605.272 441.172 604.199 440.847 603.116 440.938C600.993 441.117 597.34 441.446 595.037 441.775C591.632 442.262 593.243 453.149 593.243 453.149" stroke="#212121" stroke-width="0.7688" stroke-miterlimit="10" stroke-linecap="round" stroke-linejoin="round"/>
<path d="M542.772 277.729C542.772 277.729 555.937 278.216 560.346 278.216C564.449 278.216 580.139 276.079 582.097 275.81C582.231 275.792 582.364 275.77 582.498 275.746L595.463 273.349L604.554 272.65" stroke="#212121" stroke-width="0.7688" stroke-miterlimit="10" stroke-linecap="round" stroke-linejoin="round"/>
<path d="M453.961 474.438C453.961 474.438 478.376 468.569 486.159 471.032C493.706 473.382 513.987 471.647 515.365 471.525C515.417 471.521 515.465 471.516 515.517 471.51L537.788 469.095C537.847 469.089 537.906 469.082 537.965 469.074C539.757 468.846 568.191 465.254 570.075 467.139C572.021 469.086 569.589 477.875 567.156 480.795C564.724 483.714 569.102 484.201 573.511 483.714C577.889 483.228 580.838 478.331 583.271 479.335" stroke="#212121" stroke-width="0.7688" stroke-miterlimit="10" stroke-linecap="round" stroke-linejoin="round"/>
<path d="M715.59 274.596C715.59 274.596 700.905 284.572 696.04 285.545C692.69 286.215 686.543 287.116 683.039 287.612C681.325 287.855 679.578 287.587 678.01 286.851L675.071 285.473C673.159 284.576 670.993 284.38 668.952 284.919L653.565 288.982L636.334 293.503C635.462 293.731 634.561 293.828 633.66 293.789L623.799 293.361" stroke="#212121" stroke-width="0.7688" stroke-miterlimit="10" stroke-linecap="round" stroke-linejoin="round"/>
<path d="M589.716 464.889C589.716 464.889 621.823 465.162 621.823 462.729V462.729C621.823 459.676 624.141 457.121 627.18 456.825L641.429 455.439C641.695 455.413 641.942 455.379 642.205 455.329C646.388 454.548 684.389 447.502 702.82 446.124C717.814 445.003 730.512 442.141 744 439.33C748.071 438.482 752.214 437.638 756.514 436.848C775.06 433.442 809.205 432.469 820.941 429.032C832.646 425.626 863.872 420.243 875.608 414.373C887.313 408.504 900.843 399.806 900.843 399.806" stroke="#212121" stroke-width="0.7688" stroke-miterlimit="10" stroke-linecap="round" stroke-linejoin="round"/>
<path d="M473.48 584.745C473.48 584.745 498.382 583.285 506.165 583.772C513.979 584.259 550.099 580.366 550.099 580.366" stroke="#212121" stroke-width="0.7688" stroke-miterlimit="10" stroke-linecap="round" stroke-linejoin="round"/>
<path d="M571.079 515.921C571.079 515.921 582.784 514.461 588.166 513.002C593.547 511.542 572.538 513.975 643.319 507.619C709.546 501.669 742.019 493.587 745.902 492.578C746.169 492.508 746.435 492.449 746.707 492.401L752.604 491.364C753.917 491.133 755.157 490.615 756.265 489.871C759.708 487.561 767.664 482.485 772.173 481.737C776.855 480.961 790.229 478.635 795.443 477.727C796.841 477.484 798.192 476.906 799.593 476.678C800.758 476.488 802.479 476.436 804.888 476.871C807.533 477.35 809.935 477.828 811.695 478.191C813.452 478.553 814.741 480.04 814.878 481.829V481.829C815.027 483.772 816.531 485.338 818.466 485.565L821.81 485.957C822.882 486.083 823.969 485.994 825.007 485.697L843.301 480.459C845.857 479.727 848.605 480.162 850.809 481.648L867.061 492.603C867.889 493.161 868.804 493.578 869.768 493.836L886.067 498.191" stroke="#212121" stroke-width="0.7688" stroke-miterlimit="10" stroke-linecap="round" stroke-linejoin="round"/>
<path d="M652.774 659.044L655.285 654.68C656.07 653.315 656.483 651.767 656.483 650.192V646.357C656.483 645.313 656.693 644.281 656.86 643.251C657.131 641.582 657.082 639.06 654.538 638.424C654.365 638.381 654.201 638.33 654.045 638.272C650.232 636.857 653.92 632.091 657.932 631.424L659.919 631.094L671.138 630.608L689.685 629.148L710.46 625.775C710.596 625.753 710.727 625.728 710.862 625.701C712.229 625.427 720.315 623.879 724.315 624.768C725.222 624.97 725.984 625.319 726.622 625.745C729.364 627.578 731.866 630.44 735.136 630.874V630.874C736.377 631.039 737.637 630.906 738.85 630.598C741.662 629.882 747.675 628.692 756.544 628.692C769.223 628.692 779.955 627.232 787.283 627.232C794.61 627.232 795.097 625.772 797.529 626.745C799.962 627.718 803.884 633.588 805.343 633.588" stroke="#212121" stroke-width="0.7688" stroke-miterlimit="10" stroke-linecap="round" stroke-linejoin="round"/>
<path d="M619.39 509.595C619.39 509.595 627.204 519.845 627.69 521.791C628.137 523.58 627.763 545.582 627.699 549.136C627.693 549.468 627.67 549.772 627.628 550.102C627.062 554.489 622.863 587.306 623.799 588.669C624.772 590.128 622.339 605.274 624.285 607.707C626.14 610.026 627.553 617.68 627.681 618.39C627.688 618.429 627.69 618.44 627.696 618.479C627.896 619.708 633.081 651.698 633.558 655.546C634.045 659.439 637.754 663.393 637.754 663.393" stroke="#212121" stroke-width="0.7688" stroke-miterlimit="10" stroke-linecap="round" stroke-linejoin="round"/>
<path d="M691.5 502.5V502.5C691.543 502.995 694.56 515.547 694.733 516.013C695.723 518.68 697.086 522.421 698.958 527.661C706.286 548.159 714.1 579.393 716.532 581.369C718.965 583.316 719.451 588.212 717.992 590.645C716.532 593.078 716.046 594.538 715.559 597.002C715.363 597.981 715.246 599.202 715.176 600.311C715.052 602.285 715.724 604.209 716.926 605.779L717.916 607.073C720.055 609.868 720.369 613.654 718.718 616.763L718.587 617.01C717.896 618.31 717.536 619.759 717.536 621.231V622.396" stroke="#212121" stroke-width="0.7688" stroke-miterlimit="10" stroke-linecap="round" stroke-linejoin="round"/>
<path d="M752.622 490.557L751.687 492.786C750.024 496.75 751.724 501.323 755.571 503.239V503.239C757.118 503.939 758.22 504.437 759.006 504.792C760.287 505.371 761.549 506.098 762.693 506.917L770.208 512.293C770.866 512.763 771.457 513.32 771.966 513.949L777.703 521.032C778.872 522.476 779.535 524.27 780.168 526.017C781.085 528.55 783.244 532.299 788.287 534.96C794.88 538.438 801.473 542.243 803.906 543.661C804.561 544.043 805.165 544.505 805.599 545.126C806.105 545.849 806.786 547.012 807.32 548.615C808.009 550.683 809.43 553.743 810.201 555.352C810.545 556.071 810.994 556.732 811.515 557.336C812.757 558.775 815.171 561.638 816.593 563.76C818.539 566.68 824.65 568.961 824.65 568.961" stroke="#212121" stroke-width="0.7688" stroke-miterlimit="10" stroke-linecap="round" stroke-linejoin="round"/>
<path d="M721.397 497.37C721.397 497.37 720.91 492.99 721.397 489.553C721.883 486.147 725.289 485.661 727.751 485.661C730.184 485.661 728.238 480.278 731.157 478.818C734.075 477.358 739.457 473.921 741.889 473.921C742.984 473.921 743.881 472.93 744.538 471.839C745.568 470.127 746.663 468.394 748.289 467.231L754.699 462.645C755.577 462.017 756.334 461.235 756.933 460.337V460.337C758.224 458.4 760.223 457.054 762.489 456.523C765.756 455.757 768.285 455.07 769.615 454.695C770.306 454.5 770.96 454.216 771.575 453.845C775.858 451.262 793.803 440.16 798.958 432.438" stroke="#212121" stroke-width="0.7688" stroke-miterlimit="10" stroke-linecap="round" stroke-linejoin="round"/>
<path d="M680.807 288.404C680.807 288.404 689.655 363.614 692.087 369.971" stroke="#212121" stroke-width="0.7688" stroke-miterlimit="10" stroke-linecap="round" stroke-linejoin="round"/>
<path d="M795 241L795.23 244.042C795.652 249.632 801.001 253.488 806.431 252.094C830.11 246.017 886.51 231.629 892.665 230.863C896.318 230.408 898.264 230.91 899.299 231.574C900.473 232.327 900.985 233.874 901.902 234.923V234.923C903.144 236.343 903.638 238.589 905.082 239.802C905.404 240.072 905.809 240.341 906.316 240.595C908.423 241.648 912.571 243.984 914.718 245.204C915.618 245.715 916.597 246.071 917.617 246.253L926.616 247.857C928.63 248.215 930.444 249.269 931.942 250.662C934.243 252.8 937.805 255.52 939.974 254.281C943.379 252.334 939.001 250.875 939.001 248.411C939.001 247.182 939.373 245.697 939.742 244.528C940.16 243.202 940.418 241.828 940.325 240.442C939.92 234.458 938.651 217.595 937.055 215.2C935.196 212.411 932.894 200.686 932.691 199.643C932.681 199.587 932.672 199.541 932.663 199.485L930.245 185.426L924.985 168.245C924.904 167.98 924.836 167.719 924.775 167.449C924.305 165.363 921.946 155.654 918.022 151.729C913.644 147.35 911.181 139.534 911.181 139.534" stroke="#212121" stroke-width="0.7688" stroke-miterlimit="10" stroke-linecap="round" stroke-linejoin="round"/>
<path d="M619.39 414.89C619.39 414.89 633.528 418.296 635.504 418.296C636.419 418.296 637.985 417.974 639.388 417.632C641.296 417.167 642.879 415.876 643.832 414.159V414.159C644.452 413.043 645.034 411.809 646.017 410.993C647.397 409.847 650.315 407.965 656.483 405.128C666.173 400.672 677.216 393.903 680.733 391.704C681.494 391.227 682.166 390.637 682.746 389.952L686 386.109C686.825 385.134 687.34 383.891 688.243 382.987C690.081 381.148 693.418 380.838 692.634 379.247C691.661 377.3 686.28 370.944 689.715 370.457C693.12 369.971 697.529 368.024 698.016 369.484C698.502 370.944 702.394 370.457 706.316 372.89C707.267 373.485 708.104 374.169 708.826 374.863C711.276 377.219 714.329 379.247 717.728 379.247H724.073C724.597 379.247 725.119 379.174 725.627 379.048C727.231 378.649 728.769 378.376 730.123 378.19C732.401 377.876 733.782 373.894 736.082 373.894V373.894C739.001 373.894 741.463 369.515 743.409 371.948C743.921 372.587 744.231 373.296 744.409 373.993C745.006 376.322 745.357 378.901 746.965 380.688V380.688C748.121 381.972 748.749 383.638 748.873 385.362C749.112 388.676 749.855 394.045 752.166 395.365C755.571 397.312 764.844 404.155 767.307 406.101C769.739 408.047 773.175 413.917 776.58 413.917C778.92 413.917 782.194 413.687 784.013 413.544C784.855 413.477 785.597 412.97 785.975 412.214V412.214C786.475 411.213 787.6 410.706 788.719 410.684C792.264 410.612 796.082 408.624 796.909 408.17C797.02 408.109 797.129 408.048 797.241 407.989L807.319 402.695L807.824 402.393C810.547 400.77 812.214 397.834 812.214 394.664V390.492C812.214 389.214 811.915 387.958 811.553 386.732C811.064 385.075 810.714 382.797 812.214 382.197C814.647 381.223 821.092 366.656 820.697 363.919C820.377 361.677 831.877 346.769 837.097 340.346C838.603 338.493 840.841 337.5 843.229 337.5H854.5" stroke="#212121" stroke-width="0.7688" stroke-miterlimit="10" stroke-linecap="round" stroke-linejoin="round"/>
<path d="M768.554 254.25C768.554 254.25 775.243 263.526 776.399 264.317C777.234 264.874 778.265 268.176 778.802 270.08C779.054 270.975 779.133 271.9 779.106 272.83C779.007 276.157 779.03 284.509 781.537 287.643C783.522 290.126 784.573 294.168 785.08 296.831C785.41 298.565 785.051 300.331 784.259 301.908C782.26 305.887 778.585 313.55 779.165 315C779.755 316.474 779.302 324.642 778.051 330.362C777.397 333.351 778.49 336.77 777.491 339.662C777.301 340.213 776.97 340.794 776.5 341.5C775.591 342.864 775.955 343.938 775.903 344.604C775.807 345.835 773.837 345.615 772.731 346.164C770.082 347.48 765.223 350.19 764.936 352.483C764.541 355.646 764.146 358.018 764.146 361.181C764.146 362.199 764.064 362.93 763.953 363.453C763.766 364.335 762.887 364.459 762.115 363.995L762.006 363.93C760.652 363.117 758.891 363.731 758.336 365.211L758.298 365.314C758.244 365.458 758.21 365.608 758.196 365.76V365.76C758.058 367.28 760.1 369.029 759.332 370.348C759 370.918 758.511 371.67 757.821 372.647C756.058 375.146 754.841 377.043 754.008 378.442C752.815 380.443 750.944 382.116 748.7 382.744V382.744" stroke="#212121" stroke-width="0.7688" stroke-miterlimit="10" stroke-linecap="round" stroke-linejoin="round"/>
<path d="M925 361H911L908.526 333.423C908.412 332.155 908.026 330.926 907.446 329.792C906.089 327.137 903.716 322.058 904 319.5L843.5 327M769 408.5L756.5 425.5L744.5 439" stroke="#212121" stroke-width="0.7688" stroke-miterlimit="10" stroke-linecap="round" stroke-linejoin="round"/>
<path d="M911 243C911 243 902.819 248.898 904.4 251.665C905.15 252.978 905.899 254.379 906.481 255.489C907.198 256.861 907.488 258.413 907.348 259.954V259.954C907.229 261.263 907.421 262.581 907.909 263.8L908.247 264.647C908.579 265.477 908.786 266.351 908.86 267.241L909.143 270.643L909.702 273.254C910.097 275.097 911.328 276.651 913.031 277.458V277.458C915.781 278.761 917.137 281.902 916.2 284.797L909.583 305.231C909.31 306.074 909.502 306.998 910.088 307.662L910.171 307.755C911.739 309.533 910.139 312.284 907.819 311.8V311.8C906.558 311.538 905.306 312.288 904.981 313.534C904.346 315.973 903.701 318.902 904 319.5" stroke="#212121" stroke-width="0.7688" stroke-miterlimit="10" stroke-linecap="round" stroke-linejoin="round"/>
<path d="M781.5 243.5C779.9 246.7 772.5 251.833 769 254L783.5 330.5L843.5 327L904 319.5C904.4 314.3 905.833 312.333 906.5 312C907.5 312.5 909.7 313 910.5 311C911.3 309 910.167 306.5 909.5 305.5C910.333 302.5 912.5 295.3 914.5 290.5C917 284.5 917 279 913 277.5C909.8 276.3 909 271.333 909 269C909.167 269.333 909.4 269.5 909 267.5C908.5 265 907.5 264.5 907.5 259.5C907.5 254.5 904 253.5 904 251C904 249 908.333 244.833 910.5 243C904.1 241 902.5 237.5 902.5 236C900.9 230 894.5 230.167 891.5 231L883 233C860.667 238.667 815.9 250 815.5 250C797.5 257.6 794.333 247.167 795 241C791.167 240.5 783.1 240.3 781.5 243.5Z" fill="#000577" stroke="#FFF1E3"/>
<path d="M756.5 425.5L745.497 437.879C745.11 438.313 745.419 439 746 439C752 436.5 786 433.5 790.5 433C794.1 432.6 812 430.167 820.5 429C830.667 426.833 854.1 421.5 866.5 417.5C878.9 413.5 894.333 404.167 900.5 400C899.833 399.5 898.7 398 899.5 396C900.3 394 899.833 391.167 899.5 390L897 381L891 370C886 371.5 874.5 368 874.5 362.5C874.5 349.5 872 347 870.5 347C863.5 348 854 343.5 856 342C857.6 340.8 857.333 340.167 857 340C855.333 339.5 851.9 338.3 851.5 337.5C841.9 336.7 837.833 339.167 837 340.5C831.5 347.833 820.5 362.7 820.5 363.5C820.5 367 815 381 812.5 382C810 383 812 387.5 812 390C812 392.5 812 398.5 810 400.5C804 405 792.5 410 790.5 410.5C788.5 411 787 410 786 412C785.2 413.6 783.333 413.667 782.5 413.5C781.667 413.667 779.8 414 779 414C775.4 414.4 770.833 410.5 769 408.5L756.5 425.5Z" fill="#6C71D9" stroke="white"/>
<path d="M752 491.5L691 502L699.5 538L715.5 579C715.9 580.2 716.667 581.5 717 582C721.4 588.8 718 589 717 592.5C715.833 595.333 714 601.7 716 604.5C718 607.3 719.167 609.667 719.5 610.5C719.833 611.333 720.1 613.9 718.5 617.5C716.9 621.1 717.5 623.667 718 624.5C724 623.7 727.833 626.167 729 627.5C735 633 741.5 630.5 743 630C744.2 629.6 751.833 629.167 755.5 629L781.5 627.5C787.1 627.1 791.833 626.667 793.5 626.5C798.7 625.7 800 627.5 800 628.5L803.5 632.5L806 591.5C806 586.7 809.667 584.5 811.5 584C815.1 582.8 817.667 579.167 818.5 577.5C819.7 573.5 822.667 569.833 824 568.5C823 568 818.5 565.5 817.5 564.5C816.7 563.7 814.167 560.5 813 559C811.4 557.8 810.333 555.833 810 555L806.5 547C806.1 545 804.333 543.833 803.5 543.5L790 536C782.8 532.4 780.333 527.167 780 525L778.5 522.5L772 514.5L769.5 512C768 510.5 758 504 756.5 503.5C755.3 503.1 753.667 501.667 753 501C750.2 497.8 751.167 493.333 752 491.5Z" fill="#9EA1E6" stroke="#FFF1E3"/>
<defs>
<filter id="filter0_d" x="-269.445" y="1.47525" width="1336.45" height="832.998" filterUnits="userSpaceOnUse" color-interpolation-filters="sRGB">
<feFlood flood-opacity="0" result="BackgroundImageFix"/>
<feColorMatrix in="SourceAlpha" type="matrix" values="0 0 0 0 0 0 0 0 0 0 0 0 0 0 0 0 0 0 127 0"/>
<feOffset dy="10"/>
<feGaussianBlur stdDeviation="5"/>
<feColorMatrix type="matrix" values="0 0 0 0 0 0 0 0 0 0 0 0 0 0 0 0 0 0 0.1 0"/>
<feBlend mode="normal" in2="BackgroundImageFix" result="effect1_dropShadow"/>
<feBlend mode="normal" in="SourceGraphic" in2="effect1_dropShadow" result="shape"/>
</filter>
</defs>
</svg>
