<svg xmlns="http://www.w3.org/2000/svg" width="1067" height="829" fill="none" viewBox="0 0 1067 829">
    <g filter="url(#prefix__filter0_d)">
        <path fill="#FFF1E3" d="M1051.62 100.739c3.07.357 5.38 2.957 5.38 6.047 0 1.719-.73 3.358-2 4.512l-11.5 10.414-7.61 6.889c-1.73 1.57-4 2.404-6.34 2.325l-5.67-.191c-1.61-.054-3.2.323-4.61 1.091l-.67.366c-3.6 1.959-5.42 6.103-4.43 10.08l.48 1.938c.18.712.27 1.442.27 2.176v.194c0 3.431-1.95 6.564-5.03 8.077l-11.975 5.884c-2.367 1.163-4.105 3.305-4.754 5.86l-2.317 9.114c-.184.725-.277 1.47-.277 2.218v22.436c0 2.107.739 4.148 2.089 5.766l11.484 13.768c1.69 2.025 2.31 4.735 1.68 7.293-.65 2.563-2.47 4.665-4.92 5.655l-7.805 3.152c-3.255 1.315-5.387 4.475-5.387 7.986 0 3.166-1.736 6.076-4.522 7.58l-7.761 4.189-6.091 3.276c-1.311.704-2.775 1.073-4.263 1.073h-7.36c-2.419 0-4.735.973-6.428 2.701l-16.067 16.395c-1.339 1.366-1.328 3.556.024 4.909.527.527.872 1.21.983 1.947l3.121 20.692c.253 1.675.027 3.388-.65 4.941l-4.801 11.004-6.915 15.886c-.637 1.463-2.181 2.312-3.758 2.066-1.533-.239-2.726-1.457-2.935-2.995l-.317-2.342c-.318-2.344-2.254-4.133-4.616-4.264-3.907-.217-6.5 3.981-4.557 7.377l4.119 7.201c.268.467.576.909.922 1.321l7.145 8.502c1.834 2.183 2.525 5.105 1.864 7.879l-3.086 12.936c-.22.921-.583 1.8-1.077 2.607l-5.306 8.678c-.793 1.296-2.203 2.087-3.723 2.087-2.548 0-4.554-2.174-4.35-4.714l.475-5.914c.156-1.945-.324-3.888-1.368-5.537l-3.306-5.22c-.844-1.332-2.022-2.419-3.418-3.152l-2.553-1.341c-2.742-1.44-4.551-4.19-4.788-7.279l-.472-6.152c-.06-.777-.018-1.559.124-2.325l2.213-11.963c.261-1.411-.357-2.839-1.563-3.616-1.421-.915-3.29-.697-4.462.521l-3.85 4c-2.598 2.7-3.252 6.728-1.641 10.111l.224.469c.513 1.078.807 2.246.864 3.438l.509 10.589c.139 2.901 1.834 5.502 4.432 6.801 1.496.748 2.721 1.945 3.505 3.423l5.102 9.623c.394.744.682 1.54.856 2.364l1.228 5.843.563 2.644c.229 1.079.181 2.198-.141 3.253-1.215 3.982 1.57 8.064 5.72 8.386l1.221.095c.842.066 1.667.273 2.44.613l1.814.799c3.018 1.329 4.708 4.578 4.063 7.812l-.086.43c-.512 2.567.595 5.186 2.792 6.61l1.154.747c1.295.839 2.014 2.33 1.864 3.866-.097.996-.553 1.922-1.283 2.607l-.547.515c-2.753 2.584-2.534 7.02.46 9.321l2.962 2.275c2.217 1.704 3.517 4.341 3.517 7.137v3.777c0 2.473-1.291 4.768-3.405 6.052-3.325 2.019-4.454 6.308-2.554 9.703l.403.72c1.187 2.122 1.356 4.666.459 6.926l-.745 1.878c-1.167 2.939-3.79 5.051-6.911 5.562l-19.561 3.202c-4.352.712-7.546 4.472-7.546 8.882v2.74c0 1.448-.349 2.875-1.019 4.159l-6.369 12.223c-1.233 2.367-3.454 4.064-6.062 4.634l-7.094 1.548c-2.448.534-4.563 2.066-5.835 4.225l-.316.536-7.297 12.421c-.892 1.519-1.319 3.268-1.227 5.028l.084 1.614c.128 2.451-.751 4.849-2.433 6.637l-14.593 15.508c-1.444 1.534-3.457 2.404-5.564 2.404-2.99 0-5.705 1.744-6.948 4.464l-3.208 7.017c-.817 1.786-2.195 3.255-3.924 4.185l-4.911 2.639c-1.865 1.003-3.073 2.906-3.187 5.022l-2.435 38.815c-.135 2.153.507 4.282 1.81 6.001l4.54 5.99c.767 1.011 1.311 2.173 1.597 3.409l2.719 11.762c.085.368.279.703.556.961l4.964 4.24c2.001 1.709 3.154 4.21 3.154 6.843v2.715c0 2.631 1.151 5.13 3.151 6.84l13.626 11.652c1.742 1.49 2.85 3.589 3.098 5.867l1.463 13.455c.124 1.144.467 2.254 1.01 3.269l6.475 12.118 13.193 24.62c.701 1.307 1.067 2.767 1.067 4.251v29.068c0 4.97-4.029 9-9 9h-20.643c-.246 0-.379-.223-.457-.457-.728-1.877-3.928-5.129-6.197-7.28-1.478-1.4-3.49-2.059-5.52-1.901l-1.002.078c-3.864.301-7.166-2.754-7.166-6.63v-1.672c0-2.75-2.229-4.978-4.978-4.978-1.725 0-3.327-.893-4.234-2.36l-.848-1.372c-.618-1-.946-2.152-.946-3.328v-1.422c0-2.534-1.966-4.633-4.495-4.799-1.287-.084-2.486-.681-3.328-1.658l-10.189-11.815c-.933-1.082-1.32-2.531-1.05-3.934l.388-2.023c.408-2.122-1.375-4.024-3.519-3.753-1.302.164-2.572-.489-3.195-1.644l-1.373-2.543c-.565-1.045-.725-2.262-.451-3.417l2.53-11.009c.217-.947.28-1.924.185-2.891l-1.414-14.459c-.311-3.182-2.438-5.897-5.454-6.96-1.286-.453-2.438-1.218-3.354-2.226l-16.885-18.575c-1.556-1.713-3.712-2.76-6.02-2.924l-11.124-.792c-1.819-.13-3.635.297-5.206 1.222l-17.171 10.114c-.744.438-1.547.767-2.384.976l-.766.192c-3.674.918-7.529-.561-9.646-3.701l-6.62-9.821c-1.542-2.287-4.047-3.74-6.797-3.945l-29.241-2.17-4.386-.319c-.408-.03-.814.083-1.148.319l-7.139 5.294c-1.875 1.39-4.503 1.106-6.039-.651-1.635-1.872-4.481-2.054-6.341-.405l-1.868 1.656c-1.265 1.121-2.896 1.743-4.586 1.75l-18.605.075c-4.956.02-8.964 4.043-8.964 9v1.374c0 1.74-.556 3.434-1.587 4.836-2.365 3.212-2.059 7.664.723 10.523l5.743 5.903c2.504 2.574 1.979 6.804-1.078 8.687-1.613.993-3.617 1.105-5.33.299l-11.735-5.525c-3.689-1.737-8.084-.777-10.713 2.339l-3.84 4.553c-1.717 2.034-4.247 3.205-6.909 3.196l-7.712-.025c-4.003-.013-7.516-2.668-8.621-6.515l-2.011-6.999c-.86-2.995-3.208-5.331-6.206-6.177l-10.354-2.921c-3.202-.904-6.381 1.502-6.381 4.829 0 1.706-.866 3.295-2.301 4.219l-.159.103c-1.261.812-2.804 1.059-4.256.682l-26.314-6.843c-.739-.192-1.5-.29-2.265-.29h-9.527c-1.259 0-2.503.264-3.654.775l-34.413 15.288c-2.491 1.107-4.097 3.577-4.097 6.303 0 2.293-1.14 4.436-3.04 5.718l-8.727 5.887-2.994 2.017c-.974.657-2.067 1.116-3.217 1.352l-12.541 2.577c-2.323.477-4.363 1.852-5.678 3.824l-2.239 3.36c-1.401 2.102-3.677 3.458-6.192 3.689-3.057.281-5.714 2.214-6.921 5.037l-1.955 4.572c-.6 1.402-1.81 2.453-3.283 2.851-2.204.595-3.721 2.612-3.683 4.894l.307 18.367c.015.896-.118 1.786-.303 2.662-.759 3.604-.573 7.731.022 11.737.956 6.263 3.01 12.352 4.445 16.102.85 2.221.204 4.782-1.686 6.227-1.294.99-2.984 1.301-4.545.837l-19.436-5.77c-14.138-2.737-22.834-10.31-28.063-17.396-4.885-6.594-6.798-12.757-7.229-14.313-.07-.253-.118-.511-.157-.77-.96-6.384-2.191-10.365-3.029-12.541-.55-1.426-1.669-2.489-2.899-3.396-12.01-8.849-21.014-33.165-21.619-34.826l-.065-.183c-.115-.324-.254-.602-.393-.879-7.266-17.422-16.822-28.227-21.195-32.582-1.486-1.48-3.516-2.211-5.613-2.211h-7.075c-1.967 0-3.841-.832-5.161-2.29-1.26-1.394-3.031-2.218-4.909-2.286l-10.511-.379c-5.094-.184-9.324 3.896-9.324 8.994v2.114c0 2.794-1.298 5.429-3.512 7.133l-7.273 5.596c-2.176 1.675-5.024 2.325-7.584 1.333-15.315-5.933-26.772-22.063-30.581-27.994-.928-1.444-1.323-3.137-1.236-4.851l.419-8.265c.114-2.248-.619-4.458-2.054-6.193l-4.184-5.058-37.48-45.4c-1.56-1.888-3.821-3.06-6.264-3.245l-31.477-2.375c-4.479-.338-8.521 2.678-9.473 7.068l-.22 1.018c-.985 4.544-5.27 7.59-9.885 7.028l-66.8-8.141c-1.263-.154-2.478-.574-3.567-1.232l-35.837-21.659-46.367-28c-2.698-1.63-4.347-4.552-4.347-7.705v-.154c0-4.97-4.03-9-9-9h-44.715c-4.655 0-8.542-3.55-8.963-8.185l-1.263-13.895-.375-4.24c-.291-3.285-2.431-6.117-5.512-7.295l-.901-.344c-2.796-1.07-4.644-3.753-4.644-6.748v-1.933c0-2.922-2.368-5.29-5.29-5.29-2.581 0-4.785-1.862-5.216-4.407l-.099-.583c-.393-2.315-2.1-4.187-4.368-4.789l-1.745-.464c-1.801-.479-3.403-1.516-4.576-2.964l-11.373-14.036c-1.473-1.818-3.598-2.991-5.922-3.27l-14.068-1.685c-1.709-.205-3.324-.896-4.653-1.99l-3.154-2.599c-1.032-.851-1.434-2.249-1.011-3.517l.234-.702c.005-.014.012-.026.022-.036.01-.01.018-.022.022-.036l1.779-5.195c.819-2.393.593-5.02-.622-7.238l-.525-.959-.789-2.019c-.822-2.104-.823-4.441-.002-6.545l.284-.731c.834-2.136.82-4.51-.038-6.637l-2.1-5.204-1.855-4.593-7.059-17.444c-.417-1.029-1.064-1.948-1.892-2.687l-.491-.439c-1.227-1.096-1.929-2.663-1.929-4.309 0-1.464.556-2.875 1.556-3.945l1.98-2.117c1.381-1.478 2.149-3.425 2.149-5.448 0-1.894-.673-3.727-1.901-5.169l-5.205-6.12c-1.453-1.708-2.216-3.897-2.139-6.138l.577-16.848c.08-2.349-.762-4.637-2.346-6.373l-3.5-3.838c-1.644-1.802-2.486-4.196-2.332-6.631l.39-6.192c.123-1.956-.395-3.898-1.476-5.533l-6.219-9.4c-1.06-1.602-1.579-3.501-1.482-5.42l.783-15.525c.027-.534.101-1.065.223-1.586l1.621-6.969c.661-2.844-.098-5.833-2.037-8.016l-5.886-6.627c-2.816-3.169-3.037-7.875-.532-11.295l3.459-4.721 12.508-20.415c1.093-1.784 1.53-3.893 1.237-5.964l-.736-5.193c-.273-1.932.088-3.901 1.031-5.61l1.601-2.901c.652-1.182 1.03-2.495 1.105-3.843l1.412-25.164c.076-1.346.453-2.659 1.104-3.84l14.335-26.003 9.583-17.374c.734-1.331 1.119-2.826 1.119-4.347v-5.482c0-1.814.548-3.585 1.572-5.081l2.776-4.059 2.99-4.318c.517-.746.918-1.567 1.19-2.433l7.327-23.382c.273-.87.411-1.778.411-2.69V77.84c0-2.149.769-4.227 2.168-5.858l1.107-1.291c2.439-2.844 2.861-6.901 1.059-10.186l-.277-.505c-.784-1.43-1.165-3.048-1.101-4.678l.359-9.22c.039-.994.458-1.935 1.171-2.63l2.424-2.359c1.323-1.287.589-3.533-1.24-3.79-1.13-.16-1.955-1.15-1.909-2.29l.22-5.41c.057-1.409-.715-2.72-1.974-3.355-1.212-.61-1.976-1.852-1.976-3.21v-2.807c0-.963.171-1.92.505-2.824l2.55-6.905c.594-1.609 2.127-2.677 3.841-2.677 1.705 0 3.231 1.056 3.832 2.651l1.273 3.379c.896 2.377 2.755 4.265 5.118 5.198l8.83 3.484c.577.228 1.176.395 1.787.5l6.308 1.079c4.045.691 7.002 4.197 7.002 8.3 0 1.75-.545 3.456-1.56 4.882l-3.108 4.367c-.919 1.292-2.218 2.266-3.716 2.786-3.408 1.183-5.517 4.634-5.066 8.213.489 3.876 3.792 6.833 7.699 6.833h.851c2.585 0 5.036-1.147 6.693-3.132l3.444-4.126c1.35-1.618 2.09-3.66 2.09-5.767V39.93c0-1.042.356-2.054 1.01-2.866 1.318-1.639 1.349-3.965.075-5.638l-1.352-1.776c-1.809-2.376-2.019-5.606-.53-8.197l2.226-3.875.824-2.006c.606-1.475.266-3.169-.861-4.296-1.105-1.106-1.455-2.759-.892-4.217l.573-1.486c1.211-3.139 4.644-4.805 7.859-3.813l44.671 13.78 62.238 16.666 21.313 4.714 2.676.578 32.228 5.2 73.883 11.892 2.31.304 25.905 3.102 131.651 15.936 12.1.548 8.939.395 93.463 4.106 14.442-.973 35.544-2.398c2.07-.14 3.678-1.86 3.678-3.935 0-3.05 3.315-4.946 5.944-3.398l2.35 1.383c1.681.989 2.712 2.793 2.712 4.743v3.927c0 3.801 2.388 7.193 5.967 8.474l12.138 4.344c2.82 1.01 5.971.203 7.96-2.037 1.95-2.197 5.022-3.02 7.808-2.09l9.307 3.103c2.037.68 3.764 2.064 4.869 3.904l1.488 2.478c1.094 1.822 2.798 3.197 4.808 3.884l10.751 3.669c1.817.621 3.785.644 5.615.066l8.178-2.58c1.327-.419 2.732-.524 4.106-.308l20.499 3.224c3.545.557 7.083-1.045 9.002-4.077l1.414-2.233c1.487-2.347 3.974-3.877 6.74-4.143l.736-.071c2.186-.211 4.22-1.215 5.718-2.821l7.219-7.741c1.151-1.235 1.655-2.939 1.361-4.601-.21-1.186-.015-2.408.553-3.47l.281-.525c1.282-2.397 3.82-3.85 6.535-3.743l23.986.944c1.614.064 3.181.56 4.536 1.438l1.642 1.062c1.294.838 2.35 1.993 3.07 3.355l8.269 15.67c1.504 2.85 4.415 4.677 7.634 4.794l3.956.143c1.557.056 2.975-.89 3.52-2.35.791-2.115 3.306-2.997 5.245-1.84l3.389 2.025c1.926 1.15 3.174 3.163 3.347 5.399l.249 3.225c.187 2.417 1.461 4.619 3.463 5.985 2.1 1.433 3.393 3.779 3.483 6.318l.16 4.537c.052 1.84 1.504 3.335 3.342 3.44l.152.009c1.964.113 3.499 1.738 3.499 3.706v2.061c0 1.874.891 3.635 2.4 4.746l3.545 2.611c1.166.859 2.09 2.003 2.684 3.324 1.432 3.182 4.68 5.151 8.163 4.947l21.852-1.274 37.822-.774c2.431-.05 4.778.886 6.508 2.594l13.147 12.982c.437.431.828.905 1.168 1.415l9.664 14.513c1.719 2.58 1.82 5.912.263 8.592-1.455 2.505-4.134 4.046-7.031 4.046h-9.294c-2.597 0-5.067-1.121-6.776-3.075l-5.237-5.99c-.694-.794-1.853-.988-2.768-.462-.777.447-1.208 1.318-1.091 2.207l.962 7.32.49 3.687c.254 1.912-.112 3.854-1.045 5.542l-5.414 9.789c-1.089 1.97-1.401 4.276-.874 6.464l3.539 14.686c.811 3.368-.383 6.904-3.071 9.09l-5.533 4.5c-1.963 1.596-3.163 3.945-3.307 6.472l-.383 6.739-.226 3.932c-.212 3.685-2.652 6.866-6.156 8.027l-4.755 1.575c-1.701.563-2.849 2.152-2.849 3.943 0 2.206 1.725 4.028 3.928 4.148l6.721.367c2.777.151 5.468-.989 7.29-3.09l16.418-18.932c1.4-1.611 3.468-2.479 5.598-2.348l13.111.8c2.206.135 4.385-.547 6.121-1.915l12.237-9.648c1.667-1.314 3.744-1.997 5.865-1.928l4.787.156c2.493.081 4.805-1.297 5.92-3.528l.252-.504c.738-1.476.74-3.212.005-4.689-.995-2.001-3.146-3.154-5.363-2.875l-3.395.429c-3.349.423-6.466-1.782-7.183-5.08-.479-2.202.213-4.494 1.831-6.063l9.478-9.192c.599-.582 1.277-1.077 2.013-1.471l18.654-10.002c1.432-.768 3.045-1.134 4.668-1.059l9.691.448c2.398.111 4.172-2.203 3.443-4.49l-.218-.682c-.419-1.316.236-2.733 1.509-3.267l21.822-9.119c2.023-.846 3.669-2.401 4.626-4.375l3.836-7.901c.521-1.074 1.251-2.034 2.147-2.823l14.026-12.358c1.118-.985 2.464-1.677 3.916-2.014l58.1-13.476c2.948-.684 5.355-2.804 6.406-5.642l.77-2.078c.999-2.698 3.228-4.755 5.998-5.536l5.626-1.586c.058-.02.107-.061.134-.116l1.583-3.127c.552-1.09.869-2.284.931-3.504l.154-3.006c.089-1.737 1.214-3.249 2.852-3.833 1.787-.637 2.946-2.37 2.852-4.266l-.177-3.551c-.059-1.19-.354-2.355-.867-3.43l-2.796-5.855c-.838-1.756-1.085-3.737-.703-5.645l4.682-23.373c.843-4.206 4.536-7.233 8.825-7.233h30.833c3.92 0 7.38 2.534 8.57 6.265l7.38 23.104c.8 2.51 3.08 4.253 5.71 4.368 3.09.135 5.63 2.544 5.97 5.624.33 2.949 2.65 5.316 5.6 5.659l7.34.855z"/>
    </g>
    <path fill="#353AB0" d="M803.5 329.5l100.5-10 4 12 3.5 29.5h14c-.667 3.667-2.934 11.237-3.5 13.5-.5 2-4.257 12.379-8.5 14.5-5 2.5-7-4-6.5-6s2-8-6-17.5c-2.833-1.333-8.318-1.797-9-11-.333-4.5 0-14.5 2-17.5 1-4.5-3-8-7-3s-6.5 6.5-3.5 14.5c1 2.5.223 11.78 1 14.5 1 3.5 5.5 5.5 6.5 7s-16 2-17-10c-.8-9.6-2.5-11.5-3.5-12.5-21-1.5-13.5-7.5-13.5-7.5-2.095.221-3.73-1.185-5.401-2.16L849.5 337c-2.84-.447-4.304-2.536-5.598-4.532L839 328.5c-4.662.229-8.753 5.86-8.5 6 0 0-5.5 1-8 1-2.121 0-15.5 14.5-15.5 14.5l-3.5-20.5z"/>
    <path stroke="#000" d="M839 328.5c-4.662.229-8.753 5.86-8.5 6 0 0-5.5 1-8 1-2.121 0-15.5 14.5-15.5 14.5l-3.5-20.5 100.5-10 4 12 3.5 29.5h14c-.667 3.667-2.934 11.237-3.5 13.5-.5 2-4.257 12.379-8.5 14.5-5 2.5-7-4-6.5-6s2-8-6-17.5c-2.833-1.333-8.318-1.797-9-11-.333-4.5 0-14.5 2-17.5 1-4.5-3-8-7-3s-6.5 6.5-3.5 14.5c1 2.5.223 11.78 1 14.5 1 3.5 5.5 5.5 6.5 7s-16 2-17-10c-.8-9.6-2.5-11.5-3.5-12.5-21-1.5-13.5-7.5-13.5-7.5m-18-11.5c4.638-.228 4.68 7.583 10.5 8.5m-10.5-8.5l10.5 8.5m0 0c2.512.396 4.549 3.311 7.5 3m-7.5-3l7.5 3"/>
    <path stroke="#212121" stroke-linecap="round" stroke-linejoin="round" stroke-miterlimit="10" stroke-width=".769" d="M1.058 36.1l-6.929 25.789c-.458 1.706-.404 3.51.156 5.186l2.253 6.744c.671 2.01.467 4.21-.563 6.063v0c-1.163 2.093-1.285 4.631.011 6.644 1.555 2.415 4.018 5.523 7.14 7.084 4.692 2.347 3.415 15.172 5.46 19.849.593 1.358 2.233 1.484 3.7 1.276 3.412-.484 9.538-1.146 9.538.347 0 1.6-6.228 11.925-9.044 16.513-.882 1.437-1.329 3.089-1.538 4.763-.229 1.819-.74 4.199-1.884 5.73-2.067 2.768.7 3.467 2.767 4.836 2.067 1.399 11.766-2.768 11.067 1.399-.557 3.322.663 8.828 1.18 10.924.14.566.35 1.108.61 1.63l4.901 9.803c.6 1.201.681 2.597.224 3.86l-.028.076c-1.044 2.879 2.812 5.285 2.812 8.347v0c0 2.068-.7 4.166 2.068 6.235 2.294 1.715 6.974 2.489 8.503 2.703.332.046.66.064.996.066 2.106.01 10.263.09 12.665.698 1.316.332 3.256.348 4.93.274 2.179-.097 4.136-1.215 5.793-2.633 1.758-1.505 4.028-2.972 5.21-1.808 2.067 2.068 4.165 7.634 4.165 7.634M-240.626 199.568s218.151 66.513 305.411 72.747M247.607 70.04S226.84 287.553 225.442 326.36"/>
    <path stroke="#212121" stroke-linecap="round" stroke-linejoin="round" stroke-miterlimit="10" stroke-width=".769" d="M236.54 196.801c-9 3.467-74.096-5.535-85.193-5.535-8.376 0-44.928-5.557-62.211-8.26-5.006-.783-9.692 2.657-10.512 7.656-4.191 25.566-14.891 82.472-19.066 104.539-.937 4.952 2.33 9.668 7.304 10.481 30.941 5.057 134.398 21.34 196.752 23.558 4.905.174 8.816 4.098 8.811 9.006-.024 23.807-.414 89.234-3.898 111.089-.592 3.717-3.938 5.873-7.689 5.569-39.794-3.223-258.81-21.522-292.95-36.608M231.674 264.013s126.057 9.701 175.22 4.166"/>
    <path stroke="#212121" stroke-linecap="round" stroke-linejoin="round" stroke-miterlimit="10" stroke-width=".769" d="M386.129 78.343s4.834 10.401 3.466 13.868c-1.399 3.467-4.165 18.704 1.399 23.54 5.533 4.835 6.233 13.868 6.932 19.403.699 5.535-1.399 15.237 0 19.403 1.398 4.167 6.932 16.636 6.932 20.772 0 2.402-2.535 7.097-4.683 10.644-1.533 2.531-.804 5.882 1.732 7.406v0c1.414.85 2.331 2.301 2.465 3.945.841 10.323 3.856 48.24 3.253 54.22-.7 6.934-4.166 18.703-1.399 24.238 2.767 5.536.699 17.305 3.466 21.472 2.767 4.166 7.632 15.237 9 19.403 1.399 4.167-2.068 24.239 4.165 29.774 6.233 5.535 9.699 14.537 11.767 15.936 2.067 1.399 1.398 6.935 8.3 6.235 6.932-.699 8.301 0 4.834 2.768-3.466 2.767-11.067 4.835-8.999 6.934 2.067 2.068 2.067.699 4.834 3.467 1.086 1.086 1.962 2.708 2.625 4.276 1.132 2.68 4.911 5.335 7.214 7.112v0c1.475 1.139 1.152 2.147.99 4.004-.511 5.848-1.479 18.66-.431 21.316 1.399 3.467 0 36.708 2.068 39.476 2.067 2.767-2.767 15.936.699 21.471 2.586 4.129 2.464 15.199 2.236 20.555-.083 1.941.449 3.872.951 5.75 2.882 10.785-.794 38.513 2.347 49.179.132.448.252.877.363 1.29.075.28 9.514 11.118 9.803 11.154v0c.114.014.199.093.195.208-.095 2.849-1.167 38.288 4.172 46.927 5.534 9.002 6.233 10.401 6.932 14.537.7 4.167 4.834 6.934 6.233 10.401 1.399 3.467 2.767 12.469 0 15.937-2.767 3.467-7.631 9.701-5.534 13.168 2.098 3.467 4.835 11.07 2.068 13.868-2.767 2.768-2.068 11.071-2.068 11.071M549.552 103.282s-46.397 34.64-49.863 38.806c-1.996 2.4-1.693 7.322-1.077 11.065.505 3.065-.179 6.277-2.165 8.666-4.764 5.729-12.991 16.286-11.99 19.745 1.398 4.836 2.766 7.634 2.766 14.537 0 6.934 0 15.237 5.534 17.305 5.534 2.068 12.466 2.768 17.999 8.303 5.534 5.535 4.835 8.302 10.399 11.07 5.533 2.767 5.533 11.77 5.533 14.537 0 1.639 1.694 4.982 3.077 7.438 1.088 1.933 1.554 4.174 1.185 6.362l-.534 3.168c-.192 1.144-.135 2.316.168 3.435l.383 1.412c.722 2.669 3.144 4.523 5.909 4.523v0c1.451 0 2.855.515 3.961 1.453l7.254 6.153.061.052c.372.316 4.204 3.646 5.505 7.609 1.398 4.166 4.834 9.701.699 13.169-4.165 3.467 4.834 4.835-4.165 9.701-9 4.836-11.767 2.068-12.466 4.836-.424 1.678-.334 6.922-.197 10.791.099 2.804-1.054 5.516-3.186 7.341l-3.973 3.402c-1.519 1.3-2.565 3.064-2.879 5.038-1.035 6.52-2.762 21.59 2.603 25.373 6.933 4.835 20.098 9.002 22.865 14.537 2.766 5.535 2.766 16.636 6.932 20.772 2.931 2.932 4.131 7.913 4.584 10.607.207 1.224.544 2.429 1.234 3.461 1.751 2.621 5.703 7.59 10.782 8.103 6.933.699 8.301 6.934 8.301 9.701 0 2.768-9.699 6.235-2.068 10.402 3.867 2.111 6.485 3.863 8.127 5.077 1.529 1.132 2.387 2.886 2.599 4.776l.016.14c.228 2.039-.331 4.089-1.565 5.728v0c-1.423 1.891-3.612 3.031-5.954 3.368-3.489.502-7.997 1.588-6.689 3.781.594.996 1.246 1.876 1.873 2.626 1.694 2.023 3.057 4.427 3.224 7.06l.419 6.636c.012.189.018.377.006.566-.034.563-.166 1.992-.687 4.553-.7 3.467-6.933 6.234-8.301 9.002-1.399 2.768-3.466 16.636-6.233 19.403-2.767 2.768-1.398 4.167-4.834 6.934-3.466 2.768-11.766 14.538-9 17.305 2.741 2.742-4.691 6.855-4.832 6.933l-.004.003c-.141.078-7.577 4.257-2.066 13.867 5.564 9.701-2.067 15.936 1.399 18.703 1.77 1.414 2.636 3.191 3.06 4.593.452 1.496.813 3.055 1.588 4.413l1.632 2.862c1.512 2.651.503 5.919-1.651 8.081v0c-1.479 1.484-1.736 4.102-2.592 6.015-3.045 6.803-9.728 22.979-7.57 29.479 1.621 4.864 3.482 7.119 4.745 8.152.883.722 2.064.745 3.186.541l28.859-5.253c4.345-.791 8.622 1.688 10.096 5.852l.851 2.405c.497 1.405.62 2.91.555 4.399-.122 2.81.142 7.408 2.969 8.812l6.932 3.467M106.987 311.882s-41.472 298.744-37.58 311.427M242.651 452.48c1.077 0-.23 10.894-.989 16.606-.292 2.199-.96 4.495-1.284 6.689-2.561 17.349-6.044 97.882-7.482 126.47-.248 4.937-4.452 8.617-9.385 8.307-23.296-1.469-84.49-5.309-87.245-5.309-3.405 0-4.712 3.589-4.712 3.589M267.065 455.4s157.92 8.059 189.024 2.555"/>
    <path stroke="#212121" stroke-linecap="round" stroke-linejoin="round" stroke-miterlimit="10" stroke-width=".769" d="M241.191 472.492s46.731 1.322 65.909 2.059c4.485.173 7.925 3.711 8.103 8.197l1.963 49.233c.101 2.518 1.281 4.903 3.204 6.533v0c2.073 1.755 4.859 2.507 7.528 2l.915-.173c3.127-.595 6.319.648 8.222 3.199v0c.832 1.115 1.93 2.004 3.194 2.585l7.989 3.674c1.18.542 2.463.823 3.761.823h4.894c.631 0 1.261-.066 1.878-.198l2.121-.453c2.42-.516 4.946-.013 6.984 1.391l3.757 2.588c.541.373.864.988.864 1.645v0c0 1.234 1.108 2.172 2.325 1.97l7.191-1.196c1.434-.238 2.906-.09 4.263.43l2.292.878c1.308.5 2.715.689 4.109.551l2.776-.276 5.186-.738c1.094-.156 2.207-.109 3.283.139l3.227.741c.992.228 1.938.622 2.799 1.167l.396.251c2.328 1.473 5.202 1.799 7.8.885l2.736-.962c.96-.338 1.97-.51 2.987-.51h8.274c1.56 0 3.094-.406 4.451-1.178l1.238-.705c2.233-1.27 4.922-1.454 7.307-.5v0c.724.29 1.398.675 2.023 1.14 2.737 2.039 10.786 7.839 14.513 8.39M271.443 362.155s99.879 7.238 163.15.212M421.276 344.576s8.301.973 21.466.973c13.165 0 62.967-6.843 67.832-6.843 3.366 0 6.717.691 8.483 1.122.851.208 1.722.338 2.598.338h6.432M407.594 251.544s25.388-2.129 34.661.304c9.274 2.433 47.826-.974 55.154-1.46 7.327-.487 29.309-3.011 29.309-3.011M498.868 148.353s14.138-3.406 17.087-3.406c2.919 0 1.946-4.896 5.868-4.379 3.892.486 6.355 3.892 7.328 6.842.886 2.659 11.072 2.897 12.889 2.918.186.002.364.007.549.026 1.494.15 9.073 1.151 21.679 6.819 9.075 4.08 15.745 5.942 19.358 6.753 1.827.409 3.329 1.82 3.696 3.655v0c.228 1.143.908 2.145 1.886 2.779l4.648 3.014c1.389.901 2.502 2.167 3.218 3.66l4.287 8.94 3.352 6.105c.694 1.264 1.075 2.676 1.109 4.118l.343 14.411-.395 33.971-2.501 18.583c-.175 1.302-.064 2.624.322 3.879.444 1.448 1.062 3.485 1.575 5.25.387 1.334.428 2.747.455 4.136.022 1.144.163 2.738.605 4.739.973 4.379 2.919 2.919 10.246 5.869 4.997 1.991 6.586 4.223 7.092 5.441.242.584.169 1.227.037 1.845-.68 3.205-2.949 13.95-4.18 20.542-1.459 7.816 5.868 54.682 6.355 60.035.348 3.85.945 10.19 1.256 13.488.134 1.41-.065 2.825-.588 4.141-1.587 3.993-5.165 12.93-7.023 17.041-2.432 5.383 0 8.789 1.46 10.736.511.682.604 1.905.51 3.207-.234 3.209-2.927 5.543-6.075 6.21-2.035.431-4.417.916-6.627 1.318-5.382.974.972 5.87 1.459 8.79.045.268.073.524.087.767.131 2.201-2.366 2.596-4.105 1.243v0c-.858-.667-1.931-.992-3.014-.901-2.123.179-5.776.508-8.079.837-3.405.487-1.794 11.374-1.794 11.374"/>
    <path stroke="#212121" stroke-linecap="round" stroke-linejoin="round" stroke-miterlimit="10" stroke-width=".769" d="M542.772 277.729s13.165.487 17.574.487c4.103 0 19.793-2.137 21.751-2.406.134-.018.267-.04.401-.064l12.965-2.397 9.091-.699M453.961 474.438s24.415-5.869 32.198-3.406c7.547 2.35 27.828.615 29.206.493.052-.004.1-.009.152-.015l22.271-2.415.177-.021c1.792-.228 30.226-3.82 32.11-1.935 1.946 1.947-.486 10.736-2.919 13.656-2.432 2.919 1.946 3.406 6.355 2.919 4.378-.486 7.327-5.383 9.76-4.379M715.59 274.596s-14.685 9.976-19.55 10.949c-3.35.67-9.497 1.571-13.001 2.067-1.714.243-3.461-.025-5.029-.761l-2.939-1.378c-1.912-.897-4.078-1.093-6.119-.554l-15.387 4.063-17.231 4.521c-.872.228-1.773.325-2.674.286l-9.861-.428M589.716 464.889s32.107.273 32.107-2.16v0c0-3.053 2.318-5.608 5.357-5.904l14.249-1.386c.266-.026.513-.06.776-.11 4.183-.781 42.184-7.827 60.615-9.205 14.994-1.121 27.692-3.983 41.18-6.794 4.071-.848 8.214-1.692 12.514-2.482 18.546-3.406 52.691-4.379 64.427-7.816 11.705-3.406 42.931-8.789 54.667-14.659 11.705-5.869 25.235-14.567 25.235-14.567M473.48 584.745s24.902-1.46 32.685-.973c7.814.487 43.934-3.406 43.934-3.406M571.079 515.921s11.705-1.46 17.087-2.919c5.381-1.46-15.628.973 55.153-5.383 66.227-5.95 98.7-14.032 102.583-15.041.267-.07.533-.129.805-.177l5.897-1.037c1.313-.231 2.553-.749 3.661-1.493 3.443-2.31 11.399-7.386 15.908-8.134 4.682-.776 18.056-3.102 23.27-4.01 1.398-.243 2.749-.821 4.15-1.049 1.165-.19 2.886-.242 5.295.193 2.645.479 5.047.957 6.807 1.32 1.757.362 3.046 1.849 3.183 3.638v0c.149 1.943 1.653 3.509 3.588 3.736l3.344.392c1.072.126 2.159.037 3.197-.26l18.294-5.238c2.556-.732 5.304-.297 7.508 1.189l16.252 10.955c.828.558 1.743.975 2.707 1.233l16.299 4.355M652.774 659.044l2.511-4.364c.785-1.365 1.198-2.913 1.198-4.488v-3.835c0-1.044.21-2.076.377-3.106.271-1.669.222-4.191-2.322-4.827-.173-.043-.337-.094-.493-.152-3.813-1.415-.125-6.181 3.887-6.848l1.987-.33 11.219-.486 18.547-1.46 20.775-3.373c.136-.022.267-.047.402-.074 1.367-.274 9.453-1.822 13.453-.933.907.202 1.669.551 2.307.977 2.742 1.833 5.244 4.695 8.514 5.129v0c1.241.165 2.501.032 3.714-.276 2.812-.716 8.825-1.906 17.694-1.906 12.679 0 23.411-1.46 30.739-1.46 7.327 0 7.814-1.46 10.246-.487 2.433.973 6.355 6.843 7.814 6.843"/>
    <path stroke="#212121" stroke-linecap="round" stroke-linejoin="round" stroke-miterlimit="10" stroke-width=".769" d="M619.39 509.595s7.814 10.25 8.3 12.196c.447 1.789.073 23.791.009 27.345-.006.332-.029.636-.071.966-.566 4.387-4.765 37.204-3.829 38.567.973 1.459-1.46 16.605.486 19.038 1.855 2.319 3.268 9.973 3.396 10.683l.015.089c.2 1.229 5.385 33.219 5.862 37.067.487 3.893 4.196 7.847 4.196 7.847M692.118 503.239v0c0 .76 2.083 11.349 2.349 12.061 1.008 2.7 2.445 6.636 4.491 12.361 7.328 20.498 15.142 51.732 17.574 53.708 2.433 1.947 2.919 6.843 1.46 9.276-1.46 2.433-1.946 3.893-2.433 6.357-.196.979-.313 2.2-.383 3.309-.124 1.974.548 3.898 1.75 5.468l.99 1.294c2.139 2.795 2.453 6.581.802 9.69l-.131.247c-.691 1.3-1.051 2.749-1.051 4.221v1.165M752.622 490.557l-.935 2.229c-1.663 3.964.037 8.537 3.884 10.453v0l3.435 1.553c1.281.579 2.543 1.306 3.687 2.125l7.515 5.376c.658.47 1.249 1.027 1.758 1.656l5.737 7.083c1.169 1.444 1.832 3.238 2.465 4.985.917 2.533 3.076 6.282 8.119 8.943 6.593 3.478 13.186 7.283 15.619 8.701.655.382 1.259.844 1.693 1.465.506.723 1.187 1.886 1.721 3.489.689 2.068 2.11 5.128 2.881 6.737.344.719.793 1.38 1.314 1.984 1.242 1.439 3.656 4.302 5.078 6.424 1.946 2.92 8.057 5.201 8.057 5.201M721.397 497.37s-.487-4.38 0-7.817c.486-3.406 3.892-3.892 6.354-3.892 2.433 0 .487-5.383 3.406-6.843 2.918-1.46 8.3-4.897 10.732-4.897 1.095 0 1.992-.991 2.649-2.082 1.03-1.712 2.125-3.445 3.751-4.608l6.41-4.586c.878-.628 1.635-1.41 2.234-2.308v0c1.291-1.937 3.29-3.283 5.556-3.814 3.267-.766 5.796-1.453 7.126-1.828.691-.195 1.345-.479 1.96-.85 4.283-2.583 22.228-13.685 27.383-21.407M680.807 288.404s8.848 75.21 11.28 81.567M795.067 237.675l.35 6.149c.322 5.665 5.724 9.628 11.22 8.217 23.799-6.107 79.891-20.414 86.028-21.178 3.653-.455 5.599.047 6.634.711 1.174.753 1.686 2.3 2.603 3.349v0c1.242 1.42 1.736 3.666 3.18 4.879.322.27.727.539 1.234.793 2.107 1.053 6.255 3.389 8.402 4.609.9.511 1.879.867 2.899 1.049l8.999 1.604c2.014.358 3.828 1.412 5.326 2.805 2.301 2.138 5.863 4.858 8.032 3.619 3.405-1.947-.973-3.407-.973-5.87 0-1.229.372-2.714.741-3.883.418-1.326.676-2.7.583-4.086-.405-5.984-1.674-22.847-3.27-25.242-1.859-2.789-4.161-14.514-4.364-15.557l-.028-.158-2.418-14.059-5.26-17.181c-.081-.265-.149-.526-.21-.796-.47-2.086-2.829-11.795-6.753-15.72-4.378-4.379-6.841-12.195-6.841-12.195"/>
    <path stroke="#212121" stroke-linecap="round" stroke-linejoin="round" stroke-miterlimit="10" stroke-width=".769" d="M619.39 414.89s14.138 3.406 16.114 3.406c.915 0 2.481-.322 3.884-.664 1.908-.465 3.491-1.756 4.444-3.473v0c.62-1.116 1.202-2.35 2.185-3.166 1.38-1.146 4.298-3.028 10.466-5.865 9.69-4.456 20.733-11.225 24.25-13.424.761-.477 1.433-1.067 2.013-1.752l3.254-3.843c.825-.975 1.34-2.218 2.243-3.122 1.838-1.839 5.175-2.149 4.391-3.74-.973-1.947-6.354-8.303-2.919-8.79 3.405-.486 7.814-2.433 8.301-.973.486 1.46 4.378.973 8.3 3.406.951.595 1.788 1.279 2.51 1.973 2.45 2.356 5.503 4.384 8.902 4.384h6.345c.524 0 1.046-.073 1.554-.199 1.604-.399 3.142-.672 4.496-.858 2.278-.314 3.659-4.296 5.959-4.296v0c2.919 0 5.381-4.379 7.327-1.946.512.639.822 1.348 1 2.045.597 2.329.948 4.908 2.556 6.695v0c1.156 1.284 1.784 2.95 1.908 4.674.239 3.314.982 8.683 3.293 10.003 3.405 1.947 12.678 8.79 15.141 10.736 2.432 1.946 5.868 7.816 9.273 7.816 2.34 0 5.614-.23 7.433-.373.842-.067 1.584-.574 1.962-1.33v0c.5-1.001 1.625-1.508 2.744-1.53 3.545-.072 7.363-2.06 8.19-2.514.111-.061.22-.122.332-.181l10.078-5.294.505-.302c2.723-1.623 4.39-4.559 4.39-7.729v-4.172c0-1.278-.299-2.534-.661-3.76-.489-1.657-.839-3.935.661-4.535 2.433-.974 8.878-15.541 8.483-18.278-.32-2.242 11.18-17.15 16.4-23.573 1.506-1.853 3.744-2.846 6.132-2.846H854.5"/>
    <path stroke="#212121" stroke-linecap="round" stroke-linejoin="round" stroke-miterlimit="10" stroke-width=".769" d="M768.554 254.25s6.689 9.276 7.845 10.067c.835.557 1.866 3.859 2.403 5.763.252.895.331 1.82.304 2.75-.099 3.327-.076 11.679 2.431 14.813 1.985 2.483 3.036 6.525 3.543 9.188.33 1.734-.029 3.5-.821 5.077-1.999 3.979-5.674 11.642-5.094 13.092.59 1.474.137 9.642-1.114 15.362-.654 2.989.439 6.408-.56 9.3-.19.551-.521 1.132-.991 1.838-.909 1.364-.545 2.438-.597 3.104-.096 1.231-2.066 1.011-3.172 1.56-2.649 1.316-7.508 4.026-7.795 6.319-.395 3.163-.79 5.535-.79 8.698 0 1.018-.082 1.749-.193 2.272-.187.882-1.066 1.006-1.838.542l-.109-.065c-1.354-.813-3.115-.199-3.67 1.281l-.038.103c-.054.144-.088.294-.102.446v0c-.138 1.52 1.904 3.269 1.136 4.588-.332.57-.821 1.322-1.511 2.299-1.763 2.499-2.98 4.396-3.813 5.795-1.193 2.001-3.064 3.674-5.308 4.302v0M925 361h-14l-2.474-27.577c-.114-1.268-.5-2.497-1.08-3.631-1.357-2.655-3.73-7.734-3.446-10.292l-60.5 7.5M769 408.5l-12.5 17-12 13.5M911 243s-8.181 5.898-6.6 8.665c.75 1.313 1.499 2.714 2.081 3.824.717 1.372 1.007 2.924.867 4.465v0c-.119 1.309.073 2.627.561 3.846l.338.847c.332.83.539 1.704.613 2.594l.283 3.402.559 2.611c.395 1.843 1.626 3.397 3.329 4.204v0c2.75 1.303 4.106 4.444 3.169 7.339l-6.617 20.434c-.273.843-.081 1.767.505 2.431l.083.093c1.568 1.778-.032 4.529-2.352 4.045v0c-1.261-.262-2.513.488-2.838 1.734-.635 2.439-1.28 5.368-.981 5.966"/>
    <path fill="#000577" stroke="#fff" d="M781.5 243.5c-1.6 3.2-9 8.333-12.5 10.5l14.5 76.5 60-3.5 60.5-7.5c.4-5.2 1.833-7.167 2.5-7.5 1 .5 3.2 1 4-1 .8-2-.333-4.5-1-5.5.833-3 3-10.2 5-15 2.5-6 2.5-11.5-1.5-13-3.2-1.2-4-6.167-4-8.5.167.333.4.5 0-1.5-.5-2.5-1.5-3-1.5-8s-3.5-6-3.5-8.5c0-2 4.333-6.167 6.5-8-6.4-2-8-5.5-8-7-1.6-6-8-5.833-11-5l-8.5 2c-22.333 5.667-67.1 17-67.5 17-18 7.6-21.167-2.833-20.5-9-3.833-.5-11.9-.7-13.5 2.5z"/>
    <path fill="#6C71D9" stroke="#fff" d="M756.5 425.5l-11.003 12.379c-.387.434-.078 1.121.503 1.121 6-2.5 40-5.5 44.5-6 3.6-.4 21.5-2.833 30-4 10.167-2.167 33.6-7.5 46-11.5 12.4-4 27.833-13.333 34-17.5-.667-.5-1.8-2-1-4s.333-4.833 0-6l-2.5-9-6-11c-5 1.5-16.5-2-16.5-7.5 0-13-2.5-15.5-4-15.5-7 1-16.5-3.5-14.5-5 1.6-1.2 1.333-1.833 1-2-1.667-.5-5.1-1.7-5.5-2.5-9.6-.8-13.667 1.667-14.5 3-5.5 7.333-16.5 22.2-16.5 23 0 3.5-5.5 17.5-8 18.5s-.5 5.5-.5 8 0 8.5-2 10.5c-6 4.5-17.5 9.5-19.5 10s-3.5-.5-4.5 1.5c-.8 1.6-2.667 1.667-3.5 1.5-.833.167-2.7.5-3.5.5-3.6.4-8.167-3.5-10-5.5l-12.5 17z"/>
    <defs>
        <filter id="prefix__filter0_d" width="1336.45" height="832.998" x="-269.445" y="1.475" color-interpolation-filters="sRGB" filterUnits="userSpaceOnUse">
            <feFlood flood-opacity="0" result="BackgroundImageFix"/>
            <feColorMatrix in="SourceAlpha" values="0 0 0 0 0 0 0 0 0 0 0 0 0 0 0 0 0 0 127 0"/>
            <feOffset dy="10"/>
            <feGaussianBlur stdDeviation="5"/>
            <feColorMatrix values="0 0 0 0 0 0 0 0 0 0 0 0 0 0 0 0 0 0 0.1 0"/>
            <feBlend in2="BackgroundImageFix" result="effect1_dropShadow"/>
            <feBlend in="SourceGraphic" in2="effect1_dropShadow" result="shape"/>
        </filter>
    </defs>
</svg>
